<?xml version="1.0" standalone="no"?><svg xmlns="http://www.w3.org/2000/svg"><metadata>Created by youziku.com at Wed, 18 Nov 2015 14:14:34 GMT</metadata><defs><font id="minijianxiyuan" horiz-adv-x="256" ><font-face font-family="minijianxiyuan" font-weight="400" font-stretch="normal" font-style="normal" units-per-em="256" panose-1="2 1 6 0 3 1 1 1 1 1" ascent="220" descent="-36" bbox="-9 -63 258.064 227.133" underline-thickness="10" underline-position="-15" unicode-range="U+0020-FFE5"  /><missing-glyph /><glyph glyph-name="" unicode="" /><glyph glyph-name="space" unicode=" "  horiz-adv-x="128" /><glyph glyph-name="hyphen" unicode="-" d="M20 57v15h128v-15h-128z" horiz-adv-x="168" /><glyph glyph-name="ellipsis" unicode="&#x2026;" d="M51 74c-17 -2 -17 28 0 26c17 2 17 -28 0 -26zM206 74c-17 -2 -17 28 0 26c17 2 17 -28 0 -26zM129 74c-17 -2 -17 28 0 26c17 2 17 -28 0 -26z" /><glyph glyph-name="uni3001" unicode="&#x3001;" d="M42 46c21 -18 40 -38 57 -58c7 -7 -4 -16 -9 -8c-17 19 -35 38 -56 59c-6 6 1 13 8 7z" /><glyph glyph-name="uni3002" unicode="&#x3002;" d="M65 55c25 0 41 -16 41 -41s-16 -40 -41 -40c-26 0 -42 15 -42 40s16 41 42 41zM65 44c-19 -2 -31 -12 -31 -30s12 -29 31 -29s30 11 30 29s-12 28 -30 30z" /><glyph glyph-name="uni4E00" unicode="&#x4E00;" d="M13 92h231c8 0 8 -10 0 -10h-231c-9 0 -9 10 0 10z" /><glyph glyph-name="uni4E07" unicode="&#x4E07;" d="M249 181h-159v-52h117c19 1 27 -6 26 -19c-5 -91 1 -120 -52 -139c-27 -1 -50 2 -68 10c-7 3 -3 11 4 9c86 -25 103 -6 105 113c1 11 -4 15 -14 15h-119c-5 -61 -27 -107 -64 -141c-5 -5 -16 0 -9 6c45 37 66 103 63 198h-58c-8 0 -5 10 1 10h227c5 0 8 -11 0 -10z" /><glyph glyph-name="uni4E08" unicode="&#x4E08;" d="M149 206c16 13 9 -26 10 -38h77c5 0 8 -11 1 -11h-78c0 -57 -15 -102 -44 -135c32 -23 74 -36 126 -39c7 0 6 -11 -1 -11c-50 3 -94 17 -133 42c-24 -19 -54 -32 -90 -40c-8 -1 -10 9 -3 11c36 7 64 20 84 37c-28 26 -49 61 -62 104c-3 4 7 10 9 4c15 -44 35 -77 61 -100
c27 26 41 68 43 127h-134c-8 -1 -7 11 0 11h134v38z" /><glyph glyph-name="uni4E0A" unicode="&#x4E0A;" d="M110 203v-66h121c6 0 6 -10 0 -10h-121v-135h133c8 1 7 -11 0 -11h-230c-8 0 -7 12 1 11h85v211c-1 8 11 7 11 0z" /><glyph glyph-name="uni4E0B" unicode="&#x4E0B;" d="M237 188h-111v-43c27 -18 58 -43 94 -72c6 -5 -1 -15 -7 -9c-19 19 -49 41 -87 69v-160c0 -6 -12 -7 -11 0v215h-103c-7 0 -7 10 0 10h225c6 0 6 -10 0 -10z" /><glyph glyph-name="uni4E0D" unicode="&#x4E0D;" d="M238 190h-82c-4 -13 -12 -27 -23 -43v-168c0 -9 -11 -12 -11 -1v156c-30 -37 -66 -63 -109 -79c-7 -3 -10 9 -3 11c67 29 112 71 135 124h-125c-8 0 -8 10 0 10h218c6 0 6 -10 0 -10zM153 136c35 -27 67 -56 95 -85c5 -5 -3 -17 -7 -9c-31 33 -62 61 -94 85
c-7 3 -2 14 6 9z" /><glyph glyph-name="uni4E13" unicode="&#x4E13;" d="M104 211c17 10 7 -16 3 -24h126c8 0 8 -10 0 -10h-130l-18 -47h157c6 0 6 -10 0 -10h-161l-15 -33c-1 -4 0 -6 5 -6h152c11 -1 15 -6 10 -15c-9 -16 -42 -36 -98 -60c31 -11 53 -20 68 -27c6 -2 2 -13 -3 -11c-65 27 -115 48 -151 61c-8 3 -3 11 4 9c23 -9 47 -18 70 -27
c65 27 98 47 97 60h-152c-30 3 -2 35 1 49h-51c-9 0 -9 10 0 10h55l19 47h-66c-8 0 -8 10 0 10h69z" /><glyph glyph-name="uni4E2D" unicode="&#x4E2D;" d="M124 207c15 16 11 -21 11 -34h93c8 -1 13 -8 13 -21v-98c1 -11 -5 -14 -19 -14h-87v-70c-3 -5 -7 -6 -11 -1v71h-89c-11 0 -16 7 -16 20v96c-1 12 4 17 17 17h88v34zM30 156v-98c-1 -6 2 -8 11 -8h83v113h-85c-7 0 -9 -2 -9 -7zM135 163v-113h80c11 -1 15 2 15 9v90
c0 10 -3 14 -9 14h-86z" /><glyph glyph-name="uni4E3A" unicode="&#x4E3A;" d="M118 214c11 -11 -1 -32 -3 -53h100c16 1 22 -6 21 -20c-3 -71 -8 -116 -15 -136c-14 -37 -42 -45 -88 -24c-5 3 -6 6 -5 10c1 3 5 4 10 1c39 -18 64 -14 73 14c10 30 13 76 14 135c0 6 -3 9 -10 9h-102c-19 -77 -49 -135 -88 -174c-6 -6 -14 1 -8 7c41 41 69 97 85 167
h-80c-8 -1 -8 11 0 11h83c3 16 5 32 7 48c0 3 2 5 6 5zM30 209c24 4 41 -20 58 -30c6 -5 -2 -16 -7 -9c-13 11 -29 22 -48 32c-4 2 -5 4 -3 7zM128 96c30 -25 53 -49 70 -70c6 -9 -2 -17 -8 -8c-22 29 -45 52 -69 69c-7 4 1 12 7 9z" /><glyph glyph-name="uni4E3B" unicode="&#x4E3B;" d="M136 167h96c6 0 7 -12 0 -11h-100v-72h91c6 0 7 -12 0 -11h-91v-83h110c6 0 6 -10 0 -10h-225c-7 0 -7 10 0 10h105v83h-84c-8 -1 -7 11 0 11h84v72h-100c-8 -1 -7 11 0 11h103c-4 11 -9 23 -18 34c-6 7 4 12 9 6c9 -11 15 -25 20 -40z" /><glyph glyph-name="uni4E3D" unicode="&#x4E3D;" d="M18 204h225c5 0 6 -12 0 -11h-225c-8 -1 -7 11 0 11zM19 145c-1 30 47 18 73 18c12 0 18 -6 18 -18v-147c-1 -20 -15 -27 -40 -21c-4 2 -6 5 -6 8c1 3 3 4 7 3c18 -4 29 -1 29 10v147c-7 16 -43 4 -63 8c-5 -1 -7 -3 -7 -8v-167c0 -7 -12 -8 -11 0v167zM67 127
c4 -26 6 -77 6 -107c0 -10 -12 -13 -11 0c2 31 -1 66 -5 106c-2 7 10 8 10 1zM137 144c0 31 52 18 80 18c12 0 18 -6 18 -18v-149c-1 -27 -15 -32 -45 -21c-10 4 -7 15 4 10c20 -9 30 -5 30 11v149c0 5 -2 8 -7 8h-62c-5 -1 -8 -3 -8 -8v-167c0 -7 -10 -7 -10 0v167z
M188 126c5 -36 7 -72 6 -107c0 -11 -12 -12 -11 0c0 39 0 69 -5 106c-1 9 10 9 10 1z" /><glyph glyph-name="uni4E3E" unicode="&#x4E3E;" d="M119 212c5 -14 23 -32 16 -49c-4 -1 -6 1 -7 5c-7 17 -13 31 -18 40c-5 5 7 8 9 4zM193 156h48c7 0 6 -11 -1 -10h-61c9 -21 33 -43 70 -66c6 -4 0 -13 -7 -8c-34 24 -59 47 -74 74h-83c-15 -29 -38 -54 -68 -75c-9 -6 -14 4 -6 8c29 19 49 41 62 67h-53c-8 0 -8 10 0 10
h161c13 15 25 32 36 53c2 8 13 2 9 -5c-11 -21 -22 -37 -33 -48zM48 208c8 -16 29 -32 22 -51c-3 -1 -5 1 -6 4c-7 14 -16 28 -25 42c-5 6 5 11 9 5zM132 137c10 -6 3 -29 5 -42h62c7 0 7 -10 0 -10h-62v-48h102c7 0 7 -10 0 -10h-102c-3 -18 6 -47 -5 -57c-3 0 -5 2 -5 6
v51h-102c-8 0 -8 10 0 10h102v48h-70c-8 0 -8 10 0 10h70c2 13 -5 36 5 42z" /><glyph glyph-name="uni4E49" unicode="&#x4E49;" d="M107 212c21 -25 39 -55 53 -91c4 -9 -8 -15 -11 -5c-8 28 -26 57 -51 89c-5 4 4 12 9 7zM227 201c-13 -66 -41 -120 -88 -162c29 -24 65 -39 102 -53c8 -1 6 -14 -2 -12c-40 15 -76 34 -109 58c-37 -24 -76 -44 -116 -57c-9 -3 -13 7 -3 10c46 15 82 35 109 54
c-43 37 -74 89 -94 156c-4 10 8 12 11 4c21 -69 52 -119 93 -152c47 41 76 94 85 157c0 8 14 6 12 -3z" /><glyph glyph-name="uni4E4F" unicode="&#x4E4F;" d="M35 199c63 -1 134 1 188 9c8 1 10 -10 1 -10c-65 0 -128 -10 -189 -9c-8 0 -8 10 0 10zM128 143c-4 18 -17 24 -15 38c17 -1 17 -22 26 -38h85c17 -1 22 -7 16 -19c-28 -50 -83 -85 -165 -105c27 -36 105 -30 171 -30c8 1 8 -11 1 -11c-90 -1 -165 -8 -196 57
c-10 -16 -19 -35 -28 -56c-2 -7 -14 -3 -10 4c16 30 20 51 37 65c9 -1 11 -16 18 -20c70 15 124 45 157 92c5 7 6 11 -4 12h-195c-8 0 -5 11 1 11h101z" /><glyph glyph-name="uni4E5F" unicode="&#x4E5F;" d="M135 213c11 -13 2 -45 5 -66l79 24c35 9 16 -55 21 -84c-3 -49 -28 -62 -75 -40c-5 2 -7 4 -6 7s4 4 9 3c70 -37 64 33 62 91c0 11 -3 14 -11 12l-79 -24v-113c0 -9 -10 -11 -10 -1v110l-77 -24c5 -47 -18 -119 36 -119h120c21 0 32 14 31 42c-1 8 11 8 11 0
c10 -80 -98 -46 -162 -52c-61 -6 -44 71 -46 126l-26 -8c-15 13 18 14 26 19v73c0 7 10 7 10 0v-70l77 24v64c0 3 2 5 5 6z" /><glyph glyph-name="uni4E66" unicode="&#x4E66;" d="M91 217c9 -4 3 -24 5 -36h84c14 1 19 -5 18 -18l-4 -68c18 1 37 0 37 -17c0 -82 -18 -97 -104 -78c-11 2 -10 14 1 12c81 -21 92 -9 92 63c0 7 -4 10 -12 10h-112v-112c0 -8 -10 -8 -10 0v112h-76c-7 0 -7 10 0 10h76v75h-64c-8 -1 -7 11 0 11h64c2 12 -5 32 5 36z
M186 213c21 -14 40 -31 59 -50c6 -7 -1 -18 -8 -9c-16 19 -36 35 -57 49c-10 3 -2 15 6 10zM96 170v-75h88l4 68c0 5 -3 7 -8 7h-84z" /><glyph glyph-name="uni4E8B" unicode="&#x4E8B;" d="M126 211c9 9 12 -7 10 -16h106c5 0 5 -10 0 -10h-106v-19h72c20 1 14 -20 15 -38c0 -9 -5 -12 -14 -12h-73v-21h72c22 3 19 -18 19 -38c10 1 31 0 18 -10h-18c-1 -21 8 -37 -20 -37h-71c6 -43 -16 -49 -60 -34c-3 1 -4 3 -3 6s2 4 5 3c39 -11 53 -10 48 25h-91
c-6 -1 -6 10 -1 10h92v27h-107c-5 3 -5 7 0 10h107v28h-91c-7 0 -7 10 0 10h91v21h-76c-15 -2 -21 50 5 50h71v19h-104c-7 0 -7 10 0 10h104v16zM55 156c-9 0 -8 -26 -1 -30h72v30h-71zM136 156v-30h72c7 -1 9 28 0 30h-72zM216 57c-1 10 4 27 -6 28h-74v-28h80zM136 47v-27
h70c17 -3 8 15 10 27h-80z" /><glyph glyph-name="uni4E91" unicode="&#x4E91;" d="M221 185h-189c-7 -1 -6 11 0 11h190c7 0 6 -12 -1 -11zM241 109h-123c-25 -45 -51 -82 -78 -112c-2 -3 -1 -4 2 -5c73 1 132 4 176 9c-20 30 -35 53 -47 66c-7 7 4 15 9 7c25 -33 46 -64 64 -94c4 -6 -7 -11 -10 -5c-4 8 -7 14 -10 17c-57 -6 -122 -11 -197 -11
c-8 0 -11 8 -4 13c35 37 63 76 83 115h-90c-8 -1 -7 11 0 11h225c6 0 7 -12 0 -11z" /><glyph glyph-name="uni4EA7" unicode="&#x4EA7;" d="M122 207c5 16 16 -7 16 -16h106c17 -14 -22 -9 -33 -10c-6 -19 -13 -36 -21 -52h56c7 0 7 -12 -1 -11h-187c-9 -1 -13 -4 -13 -9c1 -62 -9 -106 -28 -134c-4 -6 -16 -3 -9 5c18 21 28 65 28 133c0 22 29 15 49 16c-9 19 -18 36 -29 52c-12 0 -50 -4 -32 10h103
c-1 5 -3 11 -5 16zM97 129h80c9 14 16 31 22 52h-129c10 -17 19 -35 27 -52z" /><glyph glyph-name="uni4EBA" unicode="&#x4EBA;" d="M120 210c11 13 10 -12 10 -22c0 -76 62 -171 117 -203c8 -5 3 -19 -7 -10c-58 43 -95 98 -112 165c-15 -75 -52 -130 -112 -166c-8 -5 -14 7 -5 10c76 52 113 115 109 226z" /><glyph glyph-name="uni4ECD" unicode="&#x4ECD;" d="M207 183l-4 -57c-4 -22 39 5 38 -24c-2 -59 4 -81 -9 -113c-8 -20 -43 -20 -100 -3c-6 1 -3 14 3 10c75 -15 92 -24 94 29c1 16 3 41 1 74c-1 18 -40 -7 -38 24l4 60c1 5 -1 8 -8 8h-57c0 -121 -9 -155 -66 -219c-6 -5 -13 6 -6 9c57 66 59 86 61 210c-17 3 -43 -6 -52 5
c1 3 3 5 6 6h118c11 1 16 -6 15 -19zM47 138v-166c0 -7 -10 -7 -10 0v137c-11 -21 -11 -46 -27 -51c-3 2 -3 5 -2 8c22 47 42 92 42 138c0 8 13 5 11 -2c-4 -25 -9 -46 -14 -64z" /><glyph glyph-name="uni4EE5" unicode="&#x4EE5;" d="M38 203v-184c-1 -6 2 -8 8 -6c42 13 75 30 100 51c7 6 12 -5 7 -9c-27 -20 -60 -38 -100 -51c-19 -7 -26 0 -26 19v181c0 8 11 5 11 -1zM221 202c0 -73 -7 -124 -21 -152c19 -22 37 -45 53 -70c5 -7 -6 -15 -9 -6c-18 28 -35 50 -50 67c-27 -36 -70 -59 -131 -69
c-9 -1 -11 9 -2 11c126 28 150 64 149 219c-1 8 11 7 11 0zM83 200c26 -31 48 -61 65 -90c5 -9 -7 -17 -10 -6c-23 38 -44 67 -63 88c-7 5 3 14 8 8z" /><glyph glyph-name="uni4EEC" unicode="&#x4EEC;" d="M91 214c19 -13 35 -27 48 -42c5 -4 -4 -14 -8 -7c-10 11 -26 25 -47 42c-5 3 3 10 7 7zM32 102c-7 -10 -11 -31 -25 -33c-3 1 -3 4 -1 8c21 35 35 78 42 127c-1 8 11 5 10 -1c-5 -30 -10 -55 -16 -75v-152c0 -7 -10 -7 -10 0v126zM145 201h78c11 -1 17 -6 17 -17v-181
c-4 -43 -16 -33 -65 -26c-21 22 52 -1 46 6c5 1 8 8 8 21v181c0 4 -2 6 -6 6h-77c-10 -1 -8 9 -1 10zM85 169v-192c0 -7 -12 -8 -11 0v193c0 7 11 4 11 -1z" /><glyph glyph-name="uni4F17" unicode="&#x4F17;" d="M183 131c12 -5 1 -28 5 -42c13 -44 32 -78 55 -103c6 -5 -4 -14 -8 -8c-25 33 -43 64 -50 94c-5 -39 -24 -74 -57 -100c-7 -6 -14 3 -7 8c41 33 60 82 57 145c0 4 2 6 5 6zM240 134c6 -4 5 -14 -5 -10c-43 17 -75 46 -107 72c-4 0 -11 -4 -20 -13
c-27 -24 -57 -43 -91 -58c-8 -4 -12 6 -4 10c35 16 64 36 89 58c21 19 27 22 47 1c24 -25 54 -45 91 -60zM64 127c0 -19 -1 -37 -3 -54c19 -19 38 -42 59 -71c5 -6 -6 -13 -9 -5c-22 30 -39 51 -52 64c-7 -33 -22 -62 -47 -84c-6 -6 -13 2 -7 8c38 38 47 68 48 142
c-1 8 11 8 11 0z" /><glyph glyph-name="uni4F1A" unicode="&#x4F1A;" d="M95 195c39 31 26 30 66 -1c35 -27 61 -46 80 -53c5 -2 8 -5 7 -10c-1 -4 -5 -5 -10 -2c-30 13 -75 48 -110 76c-33 -22 -91 -70 -112 -76c-9 -5 -13 9 -4 11c22 9 49 28 83 55zM56 139h144c8 0 8 -10 1 -10h-145c-8 0 -8 10 0 10zM20 83h220c8 -1 6 -10 -2 -10h-131
c-16 -33 -36 -62 -59 -88c59 2 112 6 159 12c-15 21 -28 38 -39 52c-6 7 4 13 9 7c19 -23 37 -50 54 -80c2 -23 -18 5 -18 11c-51 -6 -108 -13 -172 -13c-12 0 -15 6 -7 13c25 24 46 53 62 86h-76c-8 0 -8 10 0 10z" /><glyph glyph-name="uni4F20" unicode="&#x4F20;" d="M160 17c26 19 50 30 64 51c-34 7 -80 3 -119 3c-27 0 -6 30 -4 43h-40c-7 0 -7 10 0 10h44l13 44h-43c-8 0 -5 10 1 10h45c5 10 3 30 14 34c10 -7 -3 -23 -3 -34h103c7 0 7 -10 0 -10h-106l-13 -44h133c5 0 5 -10 0 -10h-137l-7 -23c-2 -7 -1 -10 4 -10h115
c12 -1 20 -8 11 -19c-11 -13 -33 -30 -65 -51c20 -12 36 -22 47 -31c5 -4 0 -15 -7 -9c-37 27 -75 51 -116 68c-9 4 -5 14 4 11c23 -11 43 -22 62 -33zM57 204c-18 -63 -12 -150 -13 -230c0 -6 -10 -6 -10 0v143c-13 -22 -11 -33 -26 -35c-2 2 -2 5 1 9c20 32 33 70 38 115
c1 10 12 5 10 -2z" /><glyph glyph-name="uni4F34" unicode="&#x4F34;" d="M157 205v-92h64c6 0 5 -12 -1 -11h-63v-52h85c6 0 7 -12 0 -11h-84v-65c-5 -6 -9 -6 -11 -1v66h-79c-5 4 -5 8 1 11h78v52h-62c-7 -1 -8 11 -1 11h62v93c0 8 11 5 11 -1zM223 192c-8 -27 -17 -51 -28 -72c-2 -9 -15 -3 -10 4c11 18 21 41 28 71c2 7 13 3 10 -3zM89 195
c5 -12 14 -35 25 -68c3 -8 -8 -14 -10 -5c-7 26 -16 49 -24 68c-3 5 6 9 9 5zM49 145v-167c0 -5 -10 -7 -10 -1v139c-5 -13 -12 -27 -21 -43c-4 -5 -13 -2 -9 5c20 36 34 78 43 125c-1 7 13 4 10 -2c-3 -17 -7 -35 -13 -56z" /><glyph glyph-name="uni4F46" unicode="&#x4F46;" d="M104 200h104c12 -1 20 -7 20 -16v-142c-1 -13 -7 -20 -18 -20h-107c-13 0 -19 5 -19 16v143c0 13 7 19 20 19zM68 -13h175c8 1 8 -11 0 -11h-175c-9 0 -10 12 0 11zM52 143v-165c0 -6 -12 -7 -11 0v145c-5 -14 -14 -30 -26 -49c-4 -6 -13 -2 -8 6c21 31 38 74 51 127
c0 8 14 6 11 -2c-2 -8 -8 -29 -17 -62zM217 116v66c-1 4 -4 7 -10 7h-102c-7 0 -10 -3 -10 -8v-65h122zM217 43v63h-122v-66c0 -5 3 -7 8 -7h107c5 -1 7 3 7 10z" /><glyph glyph-name="uni4F4D" unicode="&#x4F4D;" d="M56 205c-15 -69 -9 -145 -10 -226c0 -7 -12 -8 -11 0v139c-11 -21 -11 -37 -27 -39c-3 1 -3 4 -1 8c24 36 38 76 38 119c0 9 12 6 11 -1zM147 177c-2 15 -16 23 -9 33c14 -2 12 -15 20 -33h82c6 0 6 -10 0 -10h-170c-7 0 -7 10 0 10h77zM85 134c-3 7 6 10 9 3
c13 -35 22 -77 27 -125c1 -11 -11 -11 -10 0c-6 46 -15 87 -26 122zM188 -13h58c6 1 6 -10 1 -10h-183c-8 0 -8 10 0 10h111c18 48 30 97 35 148c0 6 13 8 12 -1c-6 -47 -17 -96 -34 -147z" /><glyph glyph-name="uni4F53" unicode="&#x4F53;" d="M52 139v-161c0 -6 -10 -6 -10 0v141c-7 -15 -17 -31 -27 -48c-4 -7 -13 0 -8 6c22 33 39 75 52 126c0 8 14 6 11 -2c-7 -24 -13 -45 -18 -62zM156 213c12 -4 3 -29 6 -42h79c5 0 5 -10 0 -10h-75c22 -50 51 -102 87 -155c3 -4 -5 -9 -9 -6c-34 50 -61 100 -82 150v-122
h44c5 0 5 -10 0 -10h-44v-46c0 -5 -12 -6 -11 0v46h-47c-7 0 -7 10 0 10h47v122c-18 -47 -47 -95 -88 -144c-4 -6 -13 -2 -8 6c44 52 74 102 90 149h-68c-8 0 -5 10 1 10h73v38c0 3 2 4 5 4z" /><glyph glyph-name="uni4F5C" unicode="&#x4F5C;" d="M117 186h123c7 0 8 -11 1 -11h-90v-63h80c8 0 10 -10 1 -10h-81v-65h91c6 0 7 -12 0 -11h-91c-3 -18 6 -48 -6 -56c-3 0 -5 2 -5 5v200h-25c-7 -26 -17 -52 -31 -77c-4 -7 -14 -2 -10 5c19 29 31 65 36 108c14 11 10 -9 7 -25zM50 137v-159c0 -6 -10 -6 -10 0v137
c-7 -15 -14 -28 -23 -39c-6 -9 -13 -1 -7 7c26 41 46 81 46 122c0 8 11 5 11 -1c-3 -19 -8 -42 -17 -67z" /><glyph glyph-name="uni4F7F" unicode="&#x4F7F;" d="M153 211c12 13 12 -12 11 -23h78c5 0 7 -10 1 -10h-79v-31c28 -4 77 13 77 -20c0 -24 8 -61 -19 -61h-58c-1 -29 -6 -50 -16 -64c17 -9 49 -18 98 -18c8 0 9 -11 1 -11c-48 2 -84 9 -107 22c-20 -11 -44 -18 -72 -21c-8 0 -10 10 -2 11c27 3 48 8 62 15
c-21 13 -39 31 -52 54c-5 3 5 11 8 6c14 -24 32 -42 53 -53c11 11 16 31 16 59c-28 4 -78 -11 -78 18c0 24 -8 63 17 63h61v31h-79c-7 0 -7 10 0 10h79v23zM153 137h-57c-20 0 -8 -30 -11 -47c1 -26 45 -9 68 -14v61zM164 137v-61c23 6 69 -14 66 15c-2 18 8 46 -14 46h-52z
M59 203c-15 -71 -9 -144 -10 -226c0 -7 -10 -7 -10 0v139c-8 -13 -11 -37 -28 -38c-3 2 -3 5 0 8c23 35 37 74 37 118c0 9 13 8 11 -1z" /><glyph glyph-name="uni5065" unicode="&#x5065;" d="M41 212c11 -11 -1 -48 -2 -62v-176c0 -7 -10 -7 -10 0v144c-6 -14 -6 -36 -20 -40c-3 2 -3 5 -2 9c18 41 27 80 28 119c0 4 2 6 6 6zM170 206c5 16 13 -3 10 -14c31 -2 68 12 58 -36c11 4 23 -7 10 -10h-10c0 -18 3 -40 -15 -40h-43v-28c18 -3 47 6 57 -5
c0 -3 -2 -5 -5 -5h-52v-29c21 -3 52 6 65 -5c0 -3 -2 -5 -5 -5h-60c0 -11 4 -40 -10 -27v27h-51c-8 0 -8 10 0 10h51v29h-46c-8 0 -8 10 0 10h46v28c-18 3 -47 -6 -57 5c10 11 39 2 57 5v30h-60c-7 0 -7 10 0 10h60v26c-16 2 -42 -5 -50 5c8 10 34 3 50 5v14zM93 16
c38 -32 68 -30 154 -30c8 0 7 -11 1 -11c-82 -1 -123 -1 -161 31c-8 -11 -17 -21 -26 -31c-5 -6 -16 3 -9 8c9 9 18 20 27 32c-11 17 -19 39 -22 65c-2 7 11 8 11 1c1 -17 7 -36 17 -55c7 19 11 38 13 58c10 31 -58 -3 -40 33c10 21 30 52 39 67c3 17 -36 -2 -42 12
c8 9 66 10 53 -14c-26 -47 -42 -71 -43 -74c22 0 49 6 45 -21c-4 -29 -9 -52 -17 -71zM227 156c-1 12 4 26 -10 26h-37v-26h47zM220 116c10 0 6 20 7 30h-47v-30h40z" /><glyph glyph-name="uni5145" unicode="&#x5145;" d="M119 185c1 9 -12 20 -5 27c12 1 12 -20 15 -27h100c7 0 7 -10 0 -10h-113c-28 -33 -54 -57 -78 -73c58 1 115 1 168 4c-11 15 -24 32 -41 48c-7 7 1 15 8 8c17 -17 38 -45 63 -82c5 -6 -6 -13 -9 -7c-1 1 -6 8 -15 23c-39 -1 -58 -2 -58 -1c8 -47 -27 -127 49 -113
c21 -2 30 12 28 43c-1 8 11 6 11 1c4 -52 -20 -57 -66 -54c-51 3 -26 75 -32 122c-11 -1 -28 -1 -49 -1c1 -64 -25 -105 -76 -122c-8 -2 -14 9 -4 11c46 15 69 52 69 111c-10 2 -77 -10 -56 13c27 18 53 41 76 69h-85c-8 0 -8 10 0 10h100z" /><glyph glyph-name="uni5149" unicode="&#x5149;" d="M133 203v-97h28c23 32 41 61 50 87c2 7 13 4 11 -3c-15 -33 -31 -61 -48 -84h66c5 0 5 -10 0 -10h-78c9 -47 -29 -124 48 -110c19 -3 28 11 26 42c0 9 10 7 10 -1c1 -48 -14 -55 -55 -51c-65 -7 -32 70 -40 120h-50c1 -64 -26 -104 -79 -121c-9 -2 -14 8 -4 10
c49 14 73 51 72 111h-73c-7 0 -7 10 0 10h105v97c-1 6 11 6 11 0zM46 193c14 -20 27 -42 37 -67c3 -8 -6 -16 -9 -6c-10 25 -22 47 -37 67c-5 5 5 11 9 6z" /><glyph glyph-name="uni5165" unicode="&#x5165;" d="M66 206c47 0 77 -11 82 -35c18 -78 50 -141 103 -186c6 -4 -2 -17 -9 -10c-55 53 -90 117 -105 191c-22 -87 -61 -149 -116 -190c-8 -6 -16 3 -8 8c54 39 92 104 115 196c-8 9 -29 14 -62 16c-7 0 -7 10 0 10z" /><glyph glyph-name="uni5173" unicode="&#x5173;" d="M59 212c17 1 14 -23 26 -37c4 -8 -8 -14 -10 -5c-4 18 -18 27 -16 42zM131 154c-1 -17 -2 -50 -4 -65h111c7 0 7 -10 0 -10h-103c25 -44 61 -77 108 -99c7 -1 4 -14 -3 -10c-48 21 -86 56 -115 105c-13 -47 -49 -83 -107 -106c-9 -4 -13 7 -4 10c54 20 87 55 100 100h-99
c-9 0 -9 10 0 10h101c2 18 3 45 5 65h-94c-7 -1 -8 10 -1 10h134c9 9 17 24 26 43c3 8 16 2 11 -6c-6 -10 -14 -24 -22 -37c20 -2 50 5 62 -5c0 -3 -2 -5 -5 -5h-101z" /><glyph glyph-name="uni517B" unicode="&#x517B;" d="M180 187c18 -2 45 5 55 -5c-1 -3 -2 -5 -5 -5h-98c-3 -10 -4 -22 -8 -31h97c6 0 6 -10 0 -10h-101c-6 -12 -12 -22 -18 -31h137c7 0 7 -10 0 -10h-62c19 -17 43 -32 72 -45c6 -2 2 -14 -5 -9c-36 17 -63 35 -80 54h-71c-5 -6 -12 -13 -21 -20c-2 -67 -2 -73 -37 -106
c-5 -5 -14 5 -8 9c30 26 33 34 34 89c-14 -10 -29 -16 -43 -24c-8 -4 -12 6 -5 9c27 12 48 26 64 43h-56c-8 0 -8 10 0 10h66c9 10 16 20 21 31h-72c-8 0 -8 10 0 10h75c4 9 7 20 9 31h-93c-7 0 -7 10 0 10h54c3 -1 -20 15 -18 24c15 4 23 -16 32 -24h70c12 8 15 27 29 28
c6 -12 -10 -19 -14 -28zM194 65v-93c0 -6 -10 -6 -10 0v93c0 6 10 6 10 0z" /><glyph glyph-name="uni5185" unicode="&#x5185;" d="M139 162h78c14 0 21 -6 21 -19v-152c-8 -28 -43 -18 -66 -5c-8 3 -2 12 5 9c35 -15 51 -15 51 2v141c1 10 -4 14 -15 14h-75c-1 -14 -3 -26 -6 -36c34 -27 62 -54 84 -80c5 -5 -2 -16 -6 -8c-28 31 -55 57 -81 78c-13 -33 -41 -58 -84 -77c-11 -5 -12 6 -4 10
c55 23 84 60 86 113h-78c-11 0 -15 -5 -15 -15v-160c0 -6 -10 -6 -10 0v164c-1 14 7 21 22 21h81c0 14 1 21 1 36c15 18 12 -18 11 -36z" /><glyph glyph-name="uni51B3" unicode="&#x51B3;" d="M147 209v-44c28 -4 74 12 74 -20v-62c10 0 38 2 25 -10h-95c16 -41 46 -72 91 -91c7 -3 4 -14 -4 -10c-47 20 -79 52 -96 97c-7 -38 -35 -71 -85 -98c-8 -3 -13 5 -5 9c45 24 72 55 80 93h-66c-7 0 -7 10 0 10h68c3 14 2 52 2 72h-57c-6 0 -4 10 1 10h56v44
c-1 6 11 5 11 0zM29 195c9 -19 17 -40 24 -65c2 -8 -8 -15 -10 -4c-6 23 -13 45 -23 64c-6 10 6 11 9 5zM60 99c-9 -53 -22 -90 -39 -112c-4 -7 -15 1 -9 6c17 23 29 59 37 108c0 8 13 5 11 -2zM145 83h65c-3 23 6 59 -6 72h-57c0 -26 0 -48 -2 -72z" /><glyph glyph-name="uni51CC" unicode="&#x51CC;" d="M23 186c-4 7 8 11 10 4c8 -22 23 -48 21 -74c-6 -3 -8 6 -10 10c-11 34 -18 54 -21 60zM59 91c2 8 13 6 10 -3c-11 -42 -27 -76 -46 -101c-6 -8 -15 -2 -9 6c21 29 37 61 45 98zM75 141h79v33h-73c-8 0 -5 10 1 10h72c0 11 -3 36 11 23v-23h75c5 0 7 -10 1 -10h-76v-33
h83c5 0 7 -10 1 -10h-174c-7 0 -7 10 0 10zM183 122c27 -13 49 -25 67 -38c6 -4 0 -15 -6 -10c-20 15 -42 29 -66 38c-9 3 -3 13 5 10zM139 111c-22 -17 -43 -28 -61 -35c-11 -4 -12 7 -3 10c18 6 37 18 56 34c7 6 14 -4 8 -9zM130 79h82c10 -2 14 -8 9 -18
c-13 -26 -31 -45 -54 -58c26 -12 52 -22 79 -22c9 0 7 -13 -1 -11c-35 5 -65 15 -89 29c-21 -13 -53 -24 -97 -29c-9 -1 -11 10 -1 10c38 0 67 13 90 23c-16 13 -29 27 -40 43c-9 -11 -19 -21 -30 -31c-6 -6 -13 3 -7 8c22 17 38 38 49 60c2 7 14 2 10 -4zM206 68h-82
c-3 -5 -6 -10 -9 -14c7 -14 21 -29 42 -45c25 15 43 33 53 54c1 3 0 5 -4 5z" /><glyph glyph-name="uni51DD" unicode="&#x51DD;" d="M58 200c11 15 11 -12 10 -23c17 3 35 10 55 22c6 3 12 -5 6 -9c-14 -11 -34 -18 -61 -23c1 -10 -4 -27 8 -25c22 3 58 -12 54 17c1 7 11 6 11 -1c1 -38 -35 -23 -67 -26c-27 -2 -12 44 -16 68zM187 151c18 9 33 17 37 34c-18 7 -50 3 -73 3c-9 0 -9 10 0 10h75
c9 -1 13 -6 11 -15c-3 -13 -17 -26 -41 -39c4 -4 10 -10 6 -16c-16 7 -28 25 -46 33c-7 2 -3 10 4 8c11 -5 20 -11 27 -18zM79 106h57c13 -15 -20 -9 -30 -10c-1 -14 -1 -29 -2 -45c12 -1 49 4 34 -10h-32c10 -15 19 -29 27 -44c4 -9 -7 -11 -10 -4c-6 15 -13 29 -22 42
c-7 -25 -22 -45 -47 -60c-7 -2 -12 5 -5 8c25 13 39 33 43 58c-12 1 -47 -4 -31 10h33c0 9 1 32 2 45h-18c-6 -9 -4 -31 -14 -32c-6 15 9 40 7 56c6 12 14 -6 8 -14zM149 119h89c24 -13 -7 -43 -16 -52c-8 -8 -14 3 -7 9c8 8 15 16 20 24c4 16 -24 7 -36 9v-57
c14 -2 38 5 44 -5c0 -3 -1 -5 -4 -5h-40v-43c9 -8 25 -15 46 -15c7 0 4 -13 -1 -11c-45 6 -73 27 -82 63c-4 -26 -10 -46 -17 -60c-3 -8 -17 -1 -10 6c13 21 19 55 20 101c0 7 10 7 10 0c-1 -35 7 -60 24 -77v103h-40c-7 0 -7 10 0 10zM35 115c-4 28 -22 68 -14 75
c3 1 5 -1 7 -4c7 -23 12 -46 17 -67c3 -9 -9 -14 -10 -4zM43 85c0 9 12 6 11 -2c-3 -35 -13 -65 -32 -92c-9 -7 -15 5 -7 10c16 23 25 51 28 84z" /><glyph glyph-name="uni51FA" unicode="&#x51FA;" d="M136 200v-95h71c8 -1 12 4 12 14v65c-1 6 11 7 11 1c-5 -33 15 -91 -23 -91h-71v-105h82c6 0 9 3 9 10v73c-1 8 11 8 11 0c-7 -33 18 -93 -22 -93h-170c-42 -1 -16 61 -23 95c0 6 10 6 10 0v-74c-1 -7 4 -11 13 -11h80v105c-34 7 -95 -17 -96 22v68c-1 6 11 6 11 0v-67
c-1 -9 2 -12 11 -12h74v94c-1 6 10 6 10 1z" /><glyph glyph-name="uni5207" unicode="&#x5207;" d="M12 150c-22 7 12 14 23 12v43c0 5 10 5 10 0v-42l76 7c8 1 8 -10 1 -10l-77 -7c1 -46 -1 -96 1 -139c33 9 59 29 79 51c5 6 14 -2 8 -8c-25 -25 -55 -48 -93 -54c-3 2 -5 7 -5 15v134zM236 174c0 29 -39 11 -62 16c0 -121 -6 -159 -74 -207c-9 -6 -15 5 -6 10
c63 36 70 90 69 197h-48c-8 0 -8 10 0 10h111c13 0 20 -8 20 -23c0 -92 34 -232 -87 -185c-7 3 -7 12 3 10c45 -15 69 -7 72 26c3 29 3 78 2 146z" /><glyph glyph-name="uni5212" unicode="&#x5212;" d="M243 202v-206c-2 -31 -30 -27 -62 -19c-10 2 -5 13 4 10c33 -10 47 -6 47 10v205c-1 6 11 5 11 0zM194 194v-170c0 -7 -12 -8 -11 0v170c-1 6 11 6 11 0zM84 47c7 -27 23 -53 46 -67c13 8 11 27 16 51c-1 8 11 5 10 -1c-4 -26 -5 -68 -33 -61c-19 13 -35 36 -48 69
c-25 -22 -41 -37 -67 -38c-1 3 1 6 5 8c21 9 40 23 58 41c-7 29 -11 59 -12 89c-16 1 -40 -10 -51 -1c-1 3 1 5 5 6l45 5c-3 10 -2 43 -2 58c0 7 10 7 10 0c1 -41 3 -56 3 -56l63 7c8 2 9 -12 1 -11l-64 -7c1 -27 6 -58 11 -81c13 16 24 33 33 52c1 7 14 0 9 -6
c-11 -23 -24 -42 -38 -57zM106 208c5 -7 13 -19 23 -36c2 -20 -15 -3 -17 6c-3 11 -17 20 -13 31c3 2 5 2 7 -1z" /><glyph glyph-name="uni5217" unicode="&#x5217;" d="M240 198v-205c-1 -27 -38 -19 -62 -15c-7 3 -5 14 4 10c33 -7 47 -5 47 7v202c3 5 6 6 11 1zM156 189h-85c-3 -18 -5 -29 -6 -34c30 -5 85 15 83 -22c-6 -94 -45 -150 -129 -159c-6 0 -9 10 -1 10c33 4 60 16 81 36c-13 19 -33 42 -59 69c-12 -11 -17 -29 -30 -26
c-1 3 -1 6 2 9c25 22 41 61 48 117c-15 2 -40 -5 -47 5c0 3 2 6 6 6h136c5 -3 6 -7 1 -11zM186 195v-168c0 -8 -12 -8 -11 0v168c-1 6 11 5 11 0zM127 145h-64c-5 -17 -11 -32 -18 -47c20 -19 41 -42 62 -68c16 22 26 56 30 101c1 9 -3 14 -10 14z" /><glyph glyph-name="uni521B" unicode="&#x521B;" d="M238 204v-213c3 -26 -39 -24 -56 -15c-6 4 -5 14 4 10c25 -9 39 -7 42 6v212c0 7 10 7 10 0zM180 193v-169c0 -6 -10 -9 -10 -1v169c-1 5 10 5 10 1zM110 144c28 3 18 -30 19 -53c3 -56 -25 -64 -69 -43c-8 4 0 12 5 10c32 -18 57 -15 53 35c-2 14 6 40 -8 41
c-24 -4 -69 12 -69 -15v-115c-7 -25 70 -21 81 -8c7 4 12 17 15 38c1 8 11 8 10 -1c-3 -53 -29 -57 -81 -57c-24 0 -36 9 -36 26v117c-3 39 48 21 80 25zM83 214c19 -6 44 -27 75 -63c5 -6 -6 -15 -9 -7c-26 32 -48 51 -65 58c-21 -19 -41 -41 -67 -59c-9 -7 -14 7 -6 10
c17 7 51 44 72 61z" /><glyph glyph-name="uni5230" unicode="&#x5230;" d="M239 203v-201c3 -29 -17 -37 -59 -24c-8 1 -4 14 3 11c34 -14 45 -8 45 16v198c-1 8 11 7 11 0zM186 195v-172c0 -8 -12 -7 -11 1v170c-1 7 11 8 11 1zM17 -14c12 0 42 6 61 6v60h-55c-6 -1 -6 10 -1 10h56c1 16 -1 35 1 48c-12 1 -53 -5 -64 2c-1 2 0 5 4 9
c23 23 40 46 51 67h-52c-9 0 -7 10 1 10h130c6 0 9 -10 1 -10h-68c-17 -27 -35 -51 -53 -70c39 -1 72 2 113 6c-11 19 -19 33 -27 43c-6 8 5 11 9 5c14 -19 27 -41 38 -67c-1 -19 -16 1 -16 10c-22 -3 -47 -4 -59 -4c2 -14 0 -33 1 -49c18 -2 47 5 57 -5c-1 -3 -2 -5 -5 -5
h-52v-59c25 1 52 12 68 3c1 -3 -1 -6 -4 -7c-47 -5 -98 -10 -133 -14c-9 -2 -12 12 -2 11z" /><glyph glyph-name="uni5236" unicode="&#x5236;" d="M87 210c13 15 10 -19 10 -31h66c5 0 5 -10 0 -10h-66v-39h68c6 0 6 -10 0 -10h-68v-33c24 -3 66 11 64 -17c-3 -51 20 -113 -51 -88c-7 0 -4 12 2 10c61 -24 30 38 38 77c0 5 -2 7 -7 7h-46v-103c0 -5 -10 -5 -10 0v103c-16 -3 -47 7 -50 -7v-87c0 -5 -10 -5 -10 0v90
c-3 26 39 11 60 15v33h-64c-7 0 -7 10 0 10h64v39h-42c-10 -14 -15 -30 -31 -30c-3 3 -3 5 0 8c17 13 27 34 28 61c16 12 7 -26 6 -29h39v31zM245 199v-203c1 -25 -18 -30 -56 -18c-6 2 -4 13 3 10c28 -11 42 -8 42 8v203c-1 6 11 6 11 0zM198 197v-172c0 -7 -12 -8 -11 0
v172c-1 6 11 5 11 0z" /><glyph glyph-name="uni529B" unicode="&#x529B;" d="M110 205c15 13 9 -23 10 -35h88c41 12 24 -49 26 -71c6 -88 -1 -144 -99 -112c-8 1 -6 14 2 11c111 -43 84 58 87 149c1 10 -4 13 -15 13h-89c-6 -93 -36 -154 -91 -185c-8 -5 -15 4 -6 9c53 29 81 89 86 176h-91c-8 0 -8 10 0 10h92v35z" /><glyph glyph-name="uni529E" unicode="&#x529E;" d="M121 180c29 -6 83 16 83 -19c0 -97 -11 -155 -22 -172c-14 -23 -55 -19 -75 -5c-7 5 0 14 7 8c82 -34 64 8 80 165c0 9 -3 13 -10 13h-64c-14 -100 -40 -165 -79 -195c-6 -5 -14 4 -7 9c37 27 62 90 75 186h-72c-10 0 -10 10 0 10h73c-4 16 12 50 13 17
c-1 -7 -1 -12 -2 -17zM226 126c12 -31 21 -68 28 -111c1 -7 -9 -12 -10 -2c-8 45 -17 81 -28 109c-6 9 7 12 10 4zM38 136c1 8 11 5 10 -2c-5 -47 -15 -82 -30 -107c-3 -4 -6 -5 -9 -3c-3 1 -3 4 0 8c13 21 22 55 29 104z" /><glyph glyph-name="uni52A1" unicode="&#x52A1;" d="M79 205h126c13 -1 17 -8 12 -19c-19 -23 -42 -42 -69 -57c31 -15 64 -27 97 -34c8 -1 8 -13 -1 -11c-34 8 -70 21 -107 40c-37 -19 -79 -33 -127 -40c-9 -2 -11 8 -2 10c43 7 83 19 118 36c-28 18 -49 35 -63 51c-15 -19 -30 -34 -44 -44c-6 -8 -15 2 -7 7
c23 17 42 40 58 67c3 6 14 -1 9 -6zM101 72h108c22 0 18 -29 18 -52c-1 -49 -41 -64 -118 -43c-3 2 -5 4 -5 7c1 4 4 5 7 4c86 -23 114 -6 106 66c-1 5 -3 8 -7 8h-110c-9 -41 -36 -72 -79 -93c-10 -5 -13 7 -5 9c39 19 64 47 73 84h-59c-7 0 -7 10 0 10h61c1 14 1 45 13 26
c0 -10 -1 -19 -3 -26zM201 195h-128c-1 -1 -2 -3 -3 -5c17 -19 40 -37 67 -54c25 12 47 29 68 51c3 4 1 7 -4 8z" /><glyph glyph-name="uni52A8" unicode="&#x52A8;" d="M164 208c14 15 10 -21 10 -33c25 -4 65 12 65 -20c0 -69 -1 -115 -3 -138c-3 -52 -28 -52 -84 -39c-7 4 -2 13 6 10c76 -27 66 19 69 82c1 13 2 41 2 84c0 19 -36 6 -54 10c-4 -110 -10 -127 -54 -193c-4 -6 -13 1 -8 7c35 39 52 102 51 186c-13 2 -38 -5 -43 5
c4 12 29 4 43 6v33zM23 202h88c7 0 7 -10 0 -10h-88c-8 0 -8 10 0 10zM55 121h-43c-8 -1 -8 11 0 11h111c7 0 8 -12 0 -11h-58c-10 -41 -24 -79 -43 -113c35 2 65 6 90 11c-8 30 -16 57 -26 80c-3 7 7 10 10 4c11 -29 21 -62 32 -99c0 -9 -16 -7 -13 5
c-36 -5 -71 -11 -106 -9c-1 3 0 7 3 12c18 29 32 66 43 109z" /><glyph glyph-name="uni533A" unicode="&#x533A;" d="M239 195h-200c-6 -1 -9 -5 -9 -13v-187c0 -7 4 -10 11 -10h202c7 1 8 -10 1 -10h-207c-12 1 -18 6 -18 16v194c-1 13 6 20 19 20h201c7 0 7 -10 0 -10zM208 181c2 6 12 1 10 -4c-15 -35 -34 -65 -56 -92c37 -38 61 -64 70 -77c6 -6 -4 -11 -8 -8c-15 20 -39 45 -70 76
c-33 -33 -67 -59 -103 -76c-10 -2 -12 5 -4 9c38 20 71 45 98 75c-19 21 -48 49 -89 84c-8 4 -2 14 6 8c27 -22 57 -49 92 -82c18 19 36 48 54 87z" /><glyph glyph-name="uni5377" unicode="&#x5377;" d="M66 52c-3 39 68 19 103 24c26 3 22 -21 22 -44s-23 -26 -70 -11c-8 1 -2 12 3 10c49 -16 62 -15 57 23c1 9 -4 12 -13 12h-77c-24 0 -12 -36 -15 -57c-6 -35 68 -20 102 -23c33 -3 48 8 43 33c-1 6 11 7 11 1c12 -59 -67 -42 -121 -45c-58 -3 -42 32 -45 77zM128 157h95
c7 0 7 -10 0 -10h-97c-6 -10 -10 -26 -16 -32h127c5 0 5 -10 0 -10h-61c19 -21 42 -39 70 -54c4 -3 5 -5 4 -8s-4 -4 -8 -2c-23 9 -49 31 -80 64h-58c-22 -29 -50 -51 -83 -68c-8 -5 -12 6 -5 9c30 13 55 34 76 59h-73c-7 0 -7 10 0 10h79c5 7 10 17 16 32h-80
c-8 0 -5 10 1 10h83c2 10 4 26 7 48c-1 8 11 5 10 -1c-2 -23 -4 -38 -7 -47zM48 200c15 -1 17 -17 27 -30c6 -7 -6 -16 -9 -7c-6 17 -22 23 -18 37zM198 198c4 6 12 0 9 -6c-7 -10 -15 -31 -31 -31c-1 16 17 20 22 37z" /><glyph glyph-name="uni53C8" unicode="&#x53C8;" d="M199 191h-175c-7 -1 -6 11 0 11h177c16 -1 25 -9 22 -22c-10 -42 -40 -84 -84 -126c37 -31 71 -54 105 -65c7 -2 0 -12 -4 -9c-29 9 -66 31 -110 66c-33 -27 -70 -50 -112 -66c-8 -3 -11 8 -3 10c46 21 81 43 106 65c-31 31 -53 67 -66 109c-3 7 9 10 11 3
c15 -43 37 -77 64 -104c40 36 67 75 82 117c1 6 -4 11 -13 11z" /><glyph glyph-name="uni53D1" unicode="&#x53D1;" d="M109 214c9 -12 -7 -41 -8 -54h138c7 0 8 -11 1 -11h-142c0 -1 -4 -12 -11 -35h123c13 0 16 -7 11 -20c-14 -32 -33 -58 -56 -78c21 -15 48 -28 79 -40c8 -2 4 -11 -4 -9c-25 8 -53 22 -84 42c-33 -19 -70 -32 -109 -40c-8 -2 -12 7 -3 9c40 8 75 22 104 39
c-23 19 -43 42 -58 70c-5 3 5 11 8 6c21 -33 40 -56 58 -69c22 18 44 43 55 78c-39 5 -86 1 -128 2c-21 -49 -43 -88 -68 -119c-4 -6 -14 -1 -8 5c33 42 60 95 80 159c-23 4 -77 -13 -58 22c7 13 6 34 19 38c9 -13 -14 -39 -11 -49h53c4 13 8 30 12 49c1 3 3 5 7 5zM173 210
c24 -10 43 -23 57 -38c6 -6 -4 -15 -9 -8c-15 15 -32 27 -51 36c-8 2 -5 13 3 10z" /><glyph glyph-name="uni53EF" unicode="&#x53EF;" d="M246 200c15 -12 -12 -11 -23 -10v-175c-6 -60 -29 -41 -98 -32c-10 1 -6 14 3 11c36 -10 59 -11 68 -8c11 1 16 11 16 28v176h-196c-5 3 -5 6 0 10h230zM175 132v-77c1 -16 -6 -21 -23 -21h-96c-15 -3 -22 5 -19 24c5 34 -17 95 22 95h95c15 2 21 -5 21 -21zM151 143h-91
c-10 1 -14 -3 -12 -13v-67c-3 -15 3 -19 17 -19h79c36 -5 15 53 20 83c2 13 -3 18 -13 16z" /><glyph glyph-name="uni53F6" unicode="&#x53F6;" d="M15 184c1 29 49 11 74 16c7 -1 12 -6 12 -16v-188c2 -32 -45 -12 -71 -18c-11 0 -15 6 -15 17v189zM187 207v-73h60c5 0 5 -10 0 -10h-60v-153c0 -6 -12 -7 -11 0v153h-63c-6 0 -4 10 1 10h62v74c0 7 11 4 11 -1zM91 -4v186c0 5 -2 8 -5 8h-55c-4 -1 -6 -4 -6 -11v-180
c-1 -7 2 -11 8 -11h52c4 0 6 3 6 8z" /><glyph glyph-name="uni53F7" unicode="&#x53F7;" d="M206 206c26 1 18 -30 18 -53c0 -11 -6 -17 -17 -17h-158c-29 -4 -18 32 -20 55c0 9 7 15 20 15h157zM48 196c-15 -1 -5 -26 -8 -39c-1 -8 3 -11 10 -11h153c17 -3 8 26 10 40c1 7 -3 10 -11 10h-154zM241 96h-184c2 -15 -12 -36 10 -36h143c14 0 21 -6 21 -18
c1 -64 -56 -81 -129 -69c-25 3 -44 7 -55 10c-7 3 -5 12 4 10c70 -18 169 -29 168 49c0 5 -4 8 -11 8h-143c-29 -3 -20 24 -19 46c-13 2 -34 -4 -41 4c0 3 2 6 6 6h230c8 0 8 -10 0 -10z" /><glyph glyph-name="uni5408" unicode="&#x5408;" d="M115 199c18 18 14 14 33 -2c29 -25 62 -48 99 -66c7 -3 2 -14 -5 -10c-46 25 -83 48 -112 78c-30 -31 -64 -59 -113 -79c-10 -5 -14 6 -4 10c41 16 75 40 102 69zM55 124h150c8 0 8 -10 1 -10h-151c-7 0 -7 10 0 10zM52 58v-60c-1 -10 3 -14 13 -14h129c10 -1 14 4 14 13
v60c0 10 -4 15 -13 15h-129c-11 1 -14 -4 -14 -14zM63 -26c-39 -2 -16 57 -21 89c-2 12 4 19 15 19h140c38 1 14 -60 21 -92c0 -11 -6 -16 -18 -16h-137z" /><glyph glyph-name="uni540C" unicode="&#x540C;" d="M46 196h167c13 -1 20 -6 20 -17v-179c1 -29 -37 -31 -63 -19c-8 2 -6 14 3 10c33 -11 50 -8 50 9v173c0 8 -4 13 -12 13h-163c-9 0 -12 -4 -12 -13v-195c0 -6 -12 -7 -11 0v198c0 13 7 20 21 20zM62 161h134c5 0 5 -10 0 -10h-135c-9 0 -7 10 1 10zM70 100
c4 37 67 21 102 21c33 0 20 -50 20 -79c0 -37 -63 -16 -96 -21c-42 -6 -20 47 -26 79zM168 31c25 -1 14 44 14 67c0 9 -5 13 -15 13h-71c-29 1 -10 -43 -15 -66c-2 -10 3 -14 12 -14h75z" /><glyph glyph-name="uni541B" unicode="&#x541B;" d="M209 205c20 -1 11 -32 13 -51c10 1 35 1 22 -10h-22c-2 -19 7 -51 -14 -51h-117c-17 -22 -42 -45 -76 -69c-7 -5 -13 5 -6 9c32 22 55 42 68 60h-48c-7 0 -7 10 0 10h54c7 11 14 25 20 41h-89c-7 0 -7 10 0 10h91c4 14 7 28 9 41h-85c-8 0 -5 10 1 10h179zM59 41
c3 -18 -7 -51 7 -57h140c22 1 7 35 11 53c2 7 -2 10 -9 10h-142c-5 0 -8 -2 -7 -6zM67 57h144c25 -1 11 -44 15 -67c-1 -10 -6 -16 -15 -16l-146 1c-25 2 -16 42 -16 67c0 9 6 15 18 15zM117 154h96c-2 13 5 36 -5 41h-82c-2 -9 -5 -22 -9 -41zM97 103h107c17 -1 6 27 9 41
h-99c-5 -17 -11 -31 -17 -41z" /><glyph glyph-name="uni5458" unicode="&#x5458;" d="M57 207h147c22 0 13 -29 15 -49c1 -11 -4 -14 -14 -14h-149c-28 -4 -15 28 -18 49c-1 9 6 14 19 14zM58 197c-18 1 -7 -21 -10 -34c-1 -7 3 -9 10 -9h144c13 2 5 25 7 37c-1 3 -3 6 -7 6h-144zM49 120h152c15 0 22 -5 22 -15v-84c0 -9 -10 -9 -10 0v82c0 5 -3 7 -10 7
h-152c-6 0 -9 -2 -9 -6v-90c0 -9 -10 -9 -10 -1v92c-1 10 5 15 17 15zM133 93c-6 -95 -29 -99 -111 -126c-9 -2 -13 8 -3 11c75 21 101 30 103 115c-1 9 11 8 11 0zM141 25c33 -14 65 -29 96 -46c6 -2 1 -13 -4 -9c-38 20 -69 36 -95 45c-7 3 -3 12 3 10z" /><glyph glyph-name="uni5468" unicode="&#x5468;" d="M52 203h162c16 0 24 -7 24 -21v-189c-6 -34 -31 -28 -68 -14c-9 3 -4 13 5 10c26 -9 53 -23 53 10v182c0 7 -5 11 -16 11h-161c-9 0 -13 -4 -12 -12c-1 -73 6 -148 -16 -201c-2 -7 -14 -5 -10 3c22 47 15 131 16 200c0 13 8 21 23 21zM127 183c11 15 11 -12 10 -22h72
c6 0 9 -10 1 -10h-73v-34h74c5 0 6 -12 0 -11h-155c-9 0 -6 11 1 11h70v34h-69c-7 0 -7 10 0 10h69v22zM83 80h100c27 1 19 -33 19 -57c0 -13 -7 -19 -21 -19h-93c-33 -3 -22 32 -22 58c0 11 6 18 17 18zM182 69h-92c-21 1 -10 -27 -13 -44c-1 -8 3 -11 11 -11h94
c15 1 7 30 9 45c0 7 -3 10 -9 10z" /><glyph glyph-name="uni547D" unicode="&#x547D;" d="M115 98v-86c1 -29 -45 -16 -71 -19c-13 1 -19 8 -19 19v84c-2 30 46 18 72 18c12 0 18 -5 18 -16zM140 98c1 26 49 16 74 16c11 0 18 -6 18 -17v-88c6 -26 -40 -28 -77 -8c1 4 4 6 7 5c85 -36 54 33 60 87c-3 19 -37 8 -56 11c-12 1 -17 -3 -15 -13v-119
c0 -7 -12 -8 -11 0v126zM35 91v-72c-3 -29 36 -13 59 -17c7 -1 10 4 10 14v73c1 26 -35 12 -55 15c-11 2 -14 -4 -14 -13zM113 204c21 19 16 17 40 -3c33 -28 63 -47 93 -54c6 -1 7 -13 -1 -10c-39 7 -81 39 -114 68c-35 -30 -77 -59 -117 -68c-10 -2 -12 9 -2 11
c37 8 70 28 101 56zM63 150h139c5 0 5 -10 0 -10h-139c-7 0 -7 10 0 10z" /><glyph glyph-name="uni548C" unicode="&#x548C;" d="M145 182c1 29 49 18 76 18c14 0 22 -7 22 -18v-183c0 -30 -47 -20 -75 -20c-16 0 -23 7 -23 21v182zM155 176v-175c0 -7 4 -11 12 -11h55c7 0 10 3 10 10v176c-2 24 -45 8 -67 13c-7 0 -10 -4 -10 -13zM79 190v-51h46c5 0 5 -10 0 -10h-46v-6c22 -23 40 -45 54 -68
c5 -6 -4 -14 -9 -6c-14 24 -30 44 -45 62v-138c-3 -5 -7 -6 -11 -1v138c-13 -33 -30 -61 -50 -83c-5 -6 -13 1 -7 7c27 32 46 64 55 95h-50c-8 0 -5 10 1 10h51v50c-2 1 -64 -9 -41 8c42 1 74 5 96 10c6 2 10 -10 2 -10c-11 -3 -26 -5 -46 -7z" /><glyph glyph-name="uni54C1" unicode="&#x54C1;" d="M29 89c30 -5 88 14 88 -17v-82c-4 -29 -55 -16 -84 -16c-11 0 -16 5 -16 15v87c1 8 5 12 12 13zM154 90c29 -5 81 13 87 -15v-86c0 -10 -5 -15 -15 -15h-71c-9 0 -14 5 -14 15v87c-1 9 4 13 13 14zM28 70v-77c-1 -5 2 -8 8 -8h60c7 1 11 4 11 10v74c0 6 -3 9 -9 9h-61
c-7 0 -9 -3 -9 -8zM47 205h160c28 -5 12 -55 16 -83c-1 -7 -6 -11 -15 -11h-160c-30 0 -10 53 -16 79c1 9 6 15 15 15zM42 187v-58c0 -5 3 -8 10 -8h151c6 -1 9 2 9 9v54c0 7 -3 10 -8 10h-151c-9 0 -12 -2 -11 -7zM151 71v-78c0 -5 3 -8 10 -8h60c6 0 9 3 9 9v75
c-1 6 -3 10 -8 10h-63c-5 0 -8 -3 -8 -8z" /><glyph glyph-name="uni5584" unicode="&#x5584;" d="M87 195c-1 -20 -22 7 -19 16c11 7 13 -15 19 -16zM176 181h58c6 0 6 -10 0 -10h-104v-22h93c6 0 9 -10 1 -10h-94v-23h113c5 0 5 -10 0 -10h-42c-8 -20 -13 -33 -15 -39h58c5 0 5 -10 1 -10h-232c-7 0 -7 10 0 10h59c-7 17 -13 30 -18 39h-42c-7 0 -7 10 0 10h108v23h-91
c-9 0 -7 10 1 10h90v22h-101c-7 0 -7 10 0 10h144c5 7 10 16 15 28c17 9 6 -19 -2 -28zM83 67h37v39h-54c7 -15 12 -28 17 -39zM130 106v-39h44c3 7 13 31 16 39h-60zM204 39c23 1 17 -27 18 -49c-1 -9 -6 -15 -16 -15h-155c-25 -1 -16 25 -18 46c-1 12 6 18 19 18h152z
M51 29c-14 -2 -5 -25 -8 -38c0 -4 2 -6 6 -6h157c11 3 4 25 6 37c0 4 -3 7 -8 7h-153z" /><glyph glyph-name="uni56DB" unicode="&#x56DB;" d="M40 198h182c15 0 23 -8 23 -23v-175c0 -14 -7 -21 -22 -21h-181c-16 0 -23 7 -23 22v177c-1 13 6 20 21 20zM29 176v-166c-1 -14 4 -21 15 -21h174c28 -2 13 34 17 55c-37 0 -85 -6 -77 32v112h-55c0 -35 2 -110 -9 -121c-5 -11 -21 -19 -48 -25c-8 -4 -12 8 -4 10
c55 15 47 17 51 87v49c-21 -4 -64 10 -64 -12zM169 188v-110c-6 -36 36 -21 66 -24v117c2 30 -42 12 -66 17z" /><glyph glyph-name="uni56E0" unicode="&#x56E0;" d="M239 179v-175c0 -16 -7 -23 -20 -23h-172c-16 1 -23 7 -23 19v185c-1 11 5 16 17 16h174c15 -1 24 -9 24 -22zM34 183v-183c-1 -6 3 -9 10 -9h175c6 1 10 4 10 10v178c-1 8 -5 12 -13 12h-174c-5 0 -8 -3 -8 -8zM130 184c12 -5 3 -31 6 -45h75c6 0 6 -10 0 -10h-75
c-1 -7 -2 -15 -2 -20c33 -29 60 -61 83 -96c5 -9 -5 -15 -9 -7c-17 32 -43 62 -76 92c-8 -39 -34 -69 -79 -91c-8 -4 -14 6 -5 10c51 23 77 61 77 112h-77c-7 0 -7 10 0 10h77c2 14 -5 39 5 45z" /><glyph glyph-name="uni56E2" unicode="&#x56E2;" d="M166 190c10 -6 3 -30 5 -44c14 -2 39 5 45 -5c0 -3 -1 -5 -4 -5h-41c-8 -66 32 -172 -68 -133c-10 4 -8 15 4 11c34 -12 54 -9 54 8v114c-29 -54 -64 -95 -105 -122c-9 -7 -14 5 -7 10c39 25 72 63 100 112h-97c-7 0 -7 10 0 10h109c2 14 -5 38 5 44zM37 207h180
c12 0 19 -6 19 -19v-193c1 -15 -6 -21 -19 -21h-173c-17 -1 -23 5 -23 18v196c0 13 5 19 16 19zM31 191v-196c-1 -7 3 -11 10 -11h178c4 1 7 4 7 10v196c0 5 -2 7 -6 7h-181c-5 0 -8 -2 -8 -6z" /><glyph glyph-name="uni56F0" unicode="&#x56F0;" d="M128 181c10 -5 3 -26 5 -38h78c6 0 6 -10 0 -10h-78v-7c29 -26 54 -54 77 -84c5 -8 -5 -13 -9 -6c-16 25 -39 51 -68 79v-109c0 -7 -10 -7 -10 0v114c-15 -32 -39 -62 -72 -90c-8 -6 -13 3 -7 8c36 29 61 62 76 95h-73c-7 0 -7 10 0 10h76c2 12 -5 33 5 38zM39 201h178
c12 0 18 -7 18 -22v-181c0 -11 -7 -17 -20 -17h-174c-14 0 -20 5 -20 16v183c-1 14 5 21 18 21zM31 179v-180c0 -5 3 -8 9 -8h175c7 1 10 3 10 8v185c-1 5 -3 7 -8 7h-174c-9 0 -12 -4 -12 -12z" /><glyph glyph-name="uni5728" unicode="&#x5728;" d="M108 188h134c7 0 7 -10 0 -10h-137c-11 -28 -27 -57 -48 -87v-116c0 -5 -10 -7 -10 -1v104c-9 -11 -19 -23 -30 -35c-6 -7 -14 1 -7 8c41 43 68 86 83 127h-78c-8 0 -8 10 0 10h81c5 11 3 25 13 25c9 -4 -1 -16 -1 -25zM159 146c13 -8 3 -38 6 -55h73c6 0 9 -11 1 -11
h-74v-92h77c9 1 9 -9 1 -10h-162c-7 0 -7 10 0 10h74v92h-72c-8 -1 -7 11 0 11h71v50c0 3 2 4 5 5z" /><glyph glyph-name="uni5730" unicode="&#x5730;" d="M237 136c-4 -84 -1 -101 -55 -82c-9 3 -5 12 3 10c55 -27 35 31 42 99c-1 6 -5 7 -13 4l-42 -19v-116c0 -7 -11 -10 -11 -1v112l-48 -21c7 -50 -21 -137 35 -136c49 1 93 -13 87 45c0 6 10 6 10 0c8 -64 -43 -55 -101 -55c-63 0 -35 86 -41 141c-9 -2 -21 -15 -30 -8
c2 12 21 13 30 19c2 20 -5 48 4 61c3 0 5 -2 6 -5v-51l48 21c3 17 -6 45 5 54c12 -6 3 -33 6 -49l44 20c24 11 22 -21 21 -43zM49 205c11 -11 2 -41 5 -60c12 0 43 4 29 -11h-29v-115c11 4 20 21 35 24c3 -3 3 -5 1 -7c-20 -20 -44 -36 -72 -47c-8 -4 -12 7 -4 9
c10 3 20 8 30 14v122c-11 -2 -40 0 -22 11h22v55c0 3 2 4 5 5z" /><glyph glyph-name="uni58A8" unicode="&#x58A8;" d="M206 208c23 1 16 -25 16 -45c0 -8 -5 -11 -13 -11h-78v-19h91c5 0 7 -10 1 -10h-92v-21h107c6 0 8 -10 2 -10h-222c-6 -1 -6 10 -1 10h103v21h-85c-7 0 -7 10 0 10h85v19h-76c-22 -3 -13 22 -15 40c-1 11 5 16 18 16h159zM131 198v-36h73c13 -1 5 20 7 30c0 4 -3 6 -9 6
h-71zM120 198h-73c-13 -1 -5 -19 -7 -30c-1 -5 1 -6 6 -6h74v36zM174 190c18 0 -1 -26 -12 -22c-3 9 11 17 12 22zM76 179c-13 20 21 2 15 -11c-8 -3 -9 5 -15 11zM58 79c-8 -16 -21 -31 -40 -46c-5 -3 -12 6 -6 9c14 10 26 24 36 41c2 5 13 2 10 -4zM203 83
c19 -15 33 -27 42 -39c4 -5 -1 -12 -6 -7c-15 16 -30 28 -42 38c-6 3 2 10 6 8zM155 80c6 -12 10 -24 13 -36c-3 -6 -7 -7 -10 -2c-2 13 -6 24 -12 34c-3 4 6 8 9 4zM119 51c11 15 13 -12 11 -23h87c6 0 9 -10 1 -10h-88v-30h107c6 1 6 -10 1 -10h-224c-7 1 -6 10 2 10h104
v30h-85c-7 0 -7 10 0 10h84v23zM86 82c14 -3 12 -26 17 -39c2 -8 -10 -10 -10 -2c0 18 -14 31 -7 41z" /><glyph glyph-name="uni5907" unicode="&#x5907;" d="M74 201h125c13 0 16 -5 9 -15c-15 -19 -37 -36 -64 -51c36 -14 71 -24 104 -29c8 -1 6 -13 -2 -11c-42 9 -80 20 -114 34c-37 -15 -77 -26 -122 -33c-8 -4 -12 9 -2 10c35 4 71 14 110 29c-21 13 -41 28 -58 45c-13 -16 -28 -29 -42 -42c-7 -7 -15 3 -7 8
c27 21 45 42 56 63c4 8 15 -3 7 -8zM226 73v-84c0 -10 -6 -15 -18 -15h-158c-15 -1 -20 6 -20 19v79c-1 12 5 17 19 17h158c13 0 19 -5 19 -16zM49 79c-17 -1 -6 -29 -9 -43h83v43h-74zM206 79h-72v-43h81c-3 15 7 43 -9 43zM134 26v-42h74c14 1 4 29 7 42h-81zM123 26h-83
c3 -14 -8 -42 8 -42h75v42zM192 191h-124c-1 -1 -1 -2 -2 -3c18 -19 40 -35 66 -48c24 13 44 28 60 43c3 4 3 7 0 8z" /><glyph glyph-name="uni590D" unicode="&#x590D;" d="M57 190h179c6 0 6 -10 0 -10h-184c-9 -11 -20 -32 -39 -33c-2 3 -1 6 2 9c19 16 31 33 36 52c12 12 14 -8 6 -18zM69 162h131c35 4 18 -39 22 -66c1 -11 -5 -14 -19 -14h-110c-3 -7 -6 -14 -11 -23h118c16 -3 21 -11 12 -23c-12 -16 -33 -27 -59 -36
c27 -11 59 -20 95 -20c9 0 5 -11 -2 -10c-46 5 -81 14 -104 26c-36 -12 -77 -20 -122 -23c-11 0 -11 10 0 10c42 0 77 10 108 18c-20 7 -39 22 -56 43c-16 -18 -25 -37 -44 -39c-2 3 -2 5 1 8c26 23 43 46 51 69c-42 -10 -31 29 -32 62c-1 12 6 18 21 18zM65 152
c-11 0 -6 -15 -7 -25h154c-1 11 4 25 -8 25h-139zM58 117c2 -10 -6 -25 8 -25h138c13 -1 7 15 8 25h-154zM204 46c-32 8 -84 4 -120 2c11 -18 32 -30 56 -42c26 10 50 20 64 40z" /><glyph glyph-name="uni591A" unicode="&#x591A;" d="M105 202h91c26 -1 25 -11 12 -30c-43 -61 -91 -87 -195 -91c-8 -2 -7 10 0 10c47 3 84 10 113 23c-15 11 -39 26 -72 45c-8 -2 -29 -16 -37 -7c-1 3 1 5 5 7c33 9 59 26 76 52c5 7 13 -4 7 -9zM174 102c30 -3 89 11 73 -26c-40 -90 -87 -102 -212 -105c-8 0 -8 10 0 10
c63 1 107 7 133 19c-30 27 -55 47 -74 60c-15 -4 -31 -6 -50 -8c-10 -1 -11 10 -1 10c56 5 98 21 125 48c5 6 12 -4 6 -8zM137 121c26 15 54 37 67 67c0 3 -3 4 -9 4h-99c-9 -10 -20 -19 -33 -27c25 -13 49 -28 74 -44zM237 87c-17 9 -52 2 -76 4c-16 -12 -34 -21 -54 -27
c18 -13 42 -33 72 -58c22 12 50 41 58 81z" /><glyph glyph-name="uni591C" unicode="&#x591C;" d="M211 151h-78c-8 -23 -17 -41 -28 -56c14 -29 33 -54 58 -74c29 24 55 62 55 117c0 8 -2 13 -7 13zM133 192h104c6 0 7 -12 0 -11h-218c-7 -1 -6 11 0 11h104c-2 6 -10 15 -5 21c11 3 14 -16 15 -21zM54 109v-132c0 -6 -10 -9 -10 -1v116c-11 -14 -18 -36 -36 -41
c-3 3 -3 5 0 8c27 27 46 64 56 112c0 7 12 3 10 -2c-5 -21 -12 -41 -20 -60zM140 128c20 -19 36 -37 48 -54c4 -6 -4 -13 -8 -7c-15 21 -30 40 -47 54c-6 5 1 14 7 7zM136 161c32 -6 95 16 92 -22c-5 -55 -25 -96 -56 -125c24 -15 49 -26 76 -32c8 -2 4 -12 -3 -10
c-25 6 -52 17 -81 34c-21 -15 -50 -26 -87 -33c-10 -2 -13 8 -2 10c34 5 60 17 79 30c-25 23 -44 48 -57 73c-7 -8 -17 -17 -28 -26c-7 -6 -14 3 -7 8c34 24 56 58 65 99c2 10 15 3 9 -6z" /><glyph glyph-name="uni5927" unicode="&#x5927;" d="M134 206v-52h105c5 0 6 -12 0 -11h-104c12 -61 48 -116 109 -161c6 -4 -1 -13 -7 -9c-55 42 -91 90 -107 145c-11 -59 -48 -106 -113 -143c-8 -5 -13 6 -6 9c67 37 104 90 111 159h-106c-5 3 -5 7 0 11h107v52c-1 6 11 5 11 0z" /><glyph glyph-name="uni5929" unicode="&#x5929;" d="M31 200h192c7 0 7 -10 0 -10h-91v-71h108c6 0 7 -12 0 -11h-105c17 -55 53 -96 108 -123c7 -3 2 -15 -5 -11c-57 29 -94 70 -110 124c-13 -59 -49 -101 -109 -125c-9 -3 -12 8 -4 11c59 23 94 65 105 124h-104c-8 -1 -8 11 0 11h105v71h-89c-10 -1 -10 9 -1 10z" /><glyph glyph-name="uni5947" unicode="&#x5947;" d="M125 190h101c7 0 7 -10 0 -10h-106c-14 -32 -47 -52 -99 -60c-8 -2 -9 9 -1 10c45 6 74 23 89 50h-86c-8 0 -8 10 0 10h90c5 4 4 23 14 23c9 -4 -1 -17 -2 -23zM12 109h233c7 0 8 -11 1 -11h-34v-98c5 -31 -22 -38 -81 -22c-7 1 -4 14 3 10c29 -6 48 -8 55 -7
c9 1 13 7 13 18v99h-190c-8 -1 -8 11 0 11zM49 74h100c30 2 17 -32 19 -55c1 -13 -5 -17 -17 -17h-101c-25 -4 -13 33 -16 55c-1 11 4 17 15 17zM53 63c-17 -1 -6 -27 -9 -42c-1 -7 2 -9 8 -9h97c15 1 5 30 8 44c0 5 -3 7 -9 7h-95zM134 174c38 -13 72 -28 100 -48
c4 -3 5 -6 4 -9s-4 -4 -8 -1c-33 21 -66 37 -99 48c-8 1 -3 13 3 10z" /><glyph glyph-name="uni597D" unicode="&#x597D;" d="M43 170c4 14 -1 37 10 39c11 -6 0 -24 2 -39c26 -2 57 10 52 -24c-7 -50 -17 -89 -37 -118c10 -9 27 -21 34 -26c6 -3 -1 -13 -7 -8c-13 11 -25 18 -34 24c-16 -17 -32 -30 -47 -40c-9 -5 -13 6 -5 9c19 13 34 25 43 38c-10 14 -47 24 -37 51c12 32 21 60 25 84
c-11 2 -31 -4 -34 5c3 9 24 4 35 5zM118 197h102c14 -1 16 -11 7 -21c-13 -13 -34 -34 -46 -45c-10 -17 14 -26 17 -40c16 -2 43 5 51 -5c-7 -10 -32 -2 -47 -5c23 -85 -18 -138 -85 -94c-7 5 -3 16 6 12c60 -55 90 30 66 82h-79c-10 0 -10 10 0 10h75c-6 17 -34 25 -15 45
c13 15 33 30 47 48c-29 5 -67 1 -99 2c-8 -1 -7 11 0 11zM96 145c4 25 -25 12 -43 15c-5 -25 -15 -53 -24 -84c-7 -25 16 -24 32 -41c17 25 27 62 35 110z" /><glyph glyph-name="uni5982" unicode="&#x5982;" d="M47 171c1 6 3 58 17 34c-3 -15 -5 -26 -6 -34c25 -3 69 10 68 -18c-1 -45 -11 -86 -34 -122c15 -11 27 -23 41 -32c3 -8 -8 -14 -12 -5c-11 9 -22 18 -35 27c-21 -22 -42 -38 -65 -48c-8 -3 -12 7 -5 9c25 12 45 27 60 46c-19 23 -71 35 -53 67c5 9 12 30 22 65
c-12 1 -48 -4 -32 11h34zM139 179c-2 35 48 18 77 22c13 -1 20 -8 20 -20v-184c1 -32 -46 -20 -74 -20c-16 0 -23 6 -23 18v184zM150 177v-178c-2 -9 2 -12 13 -12h53c7 0 10 4 10 12v180c-3 22 -43 8 -64 12c-9 0 -12 -5 -12 -14zM56 160c-12 -45 -19 -53 -25 -79
c-3 -3 14 -17 52 -43c19 27 30 64 33 109c1 25 -40 8 -60 13z" /><glyph glyph-name="uni59FB" unicode="&#x59FB;" d="M42 174c4 10 -2 32 8 37c11 -4 0 -36 2 -37c26 1 43 3 41 -27c-2 -33 -8 -69 -25 -108c9 -9 19 -20 30 -31c4 -5 -1 -11 -7 -7c-11 11 -21 20 -28 29c-11 -19 -24 -36 -40 -50c-7 -6 -15 4 -7 8c17 15 30 31 39 50c-10 14 -44 25 -34 53c9 26 15 50 19 73
c-10 -1 -37 -2 -22 10h24zM131 200h92c10 -1 16 -6 16 -16v-189c1 -13 -6 -19 -21 -19h-88c-15 0 -22 6 -22 17v188c-1 13 7 19 23 19zM118 178v-184c0 -5 2 -8 6 -8h96c6 0 9 4 9 12v183c-1 5 -3 9 -8 9h-90c-9 1 -13 -3 -13 -12zM84 148c2 23 -16 15 -34 16
c-5 -29 -13 -53 -20 -75s18 -27 30 -42c13 25 21 59 24 101zM171 181c11 -4 4 -27 6 -40c14 -2 38 5 45 -5c-7 -10 -31 -3 -45 -5c-1 -15 -1 -27 -2 -35c20 -21 37 -46 50 -77c4 -8 -6 -13 -9 -5c-12 30 -28 54 -43 71c-7 -26 -21 -50 -40 -71c-7 -7 -16 -1 -8 7
c30 30 44 67 41 110c-14 2 -38 -5 -44 5c6 10 30 3 44 5c2 13 -5 35 5 40z" /><glyph glyph-name="uni5A5A" unicode="&#x5A5A;" d="M188 151h55c5 -3 5 -7 0 -10h-53c8 -31 21 -48 40 -53c5 0 8 11 10 34c3 5 7 4 10 -2c-6 -85 -59 -28 -70 21h-62v-50c-1 -2 1 -3 4 -3c19 5 37 12 56 23c6 3 12 -5 6 -9c-21 -12 -42 -19 -63 -24c-9 -2 -13 1 -13 11v93c-3 26 35 17 57 17c21 0 42 3 62 9
c6 -3 7 -7 3 -10c-11 -4 -27 -7 -46 -8c0 -17 1 -30 4 -39zM21 74c4 24 14 68 16 86c-10 -2 -32 1 -17 10h18c5 27 -1 32 9 37c11 -5 0 -25 1 -37c18 -1 44 6 44 -14c-1 -55 -8 -96 -21 -123c9 -9 20 -21 34 -35c3 -8 -10 -11 -13 -1c-11 12 -20 21 -26 27
c-11 -16 -25 -32 -40 -47c-4 -5 -14 2 -7 6c17 15 30 32 39 49c-7 6 -42 38 -37 42zM131 69h87c27 -4 15 -51 15 -78c0 -10 -5 -15 -14 -15h-87c-28 4 -15 51 -15 78c0 9 5 15 14 15zM127 18c2 -11 -6 -32 6 -32h84c12 2 4 21 6 32h-96zM133 59c-12 -1 -4 -22 -6 -32h96
c-2 11 6 32 -6 32h-84zM47 160c-4 -30 -13 -60 -15 -86c-3 -1 18 -24 31 -32c11 23 19 60 19 111c0 13 -23 5 -35 7zM174 189h-50c-12 -2 -3 -26 -6 -38h60c-1 4 -4 24 -4 38z" /><glyph glyph-name="uni5B50" unicode="&#x5B50;" d="M41 202h167c11 0 23 -12 10 -21c-43 -29 -60 -38 -84 -57c2 -10 14 -21 20 -34h92c6 0 7 -12 0 -11h-88c17 -38 17 -104 -28 -104c-23 -1 -47 3 -72 11c-9 3 -5 14 4 11c36 -10 87 -24 94 17c3 17 -1 39 -10 65h-126c-11 0 -8 11 1 11h119c-3 9 -19 25 -19 36
c18 19 60 36 87 63c-50 7 -112 1 -167 3c-9 0 -9 10 0 10z" /><glyph glyph-name="uni5B58" unicode="&#x5B58;" d="M101 186h135c5 0 5 -10 0 -10h-137c-9 -21 -22 -43 -38 -66v-135c0 -6 -11 -9 -11 -1v123c-14 -9 -29 -38 -42 -30c-1 3 -1 5 2 8c31 25 57 58 77 101h-68c-7 0 -7 10 0 10h70c1 -2 8 44 18 22c-3 -15 -5 -23 -6 -22zM104 145h109c16 -1 22 -7 18 -18
c7 -1 -65 -32 -68 -36c7 -11 20 -24 24 -33h59c5 0 5 -10 0 -10h-55c16 -65 -27 -96 -86 -63c-8 4 -2 14 4 11c52 -31 87 -4 71 52h-89c-8 0 -5 10 1 10h82c4 10 -42 33 -16 44c7 3 52 22 62 30c-33 7 -78 1 -116 3c-7 0 -7 10 0 10z" /><glyph glyph-name="uni5B63" unicode="&#x5B63;" d="M131 191v-25h107c7 0 7 -10 0 -10h-105c32 -23 69 -41 111 -53c8 -2 3 -14 -4 -10c-42 13 -78 31 -109 53c-2 -12 5 -34 -6 -37c-10 5 -3 27 -5 40c-28 -23 -64 -40 -107 -52c-11 -3 -12 8 -4 10c37 9 72 24 105 49h-102c-8 0 -5 10 1 10h107v25c-24 -2 -60 -1 -87 -1
c-7 -1 -6 11 0 11c82 -1 143 2 183 7c6 1 9 -11 1 -11c-50 0 -66 -6 -86 -6zM103 54c0 13 76 27 86 34h-137c-9 0 -7 10 1 10h139c12 1 17 -13 4 -17c-21 -6 -59 -19 -76 -25c19 -6 32 -12 39 -18h76c6 0 6 -10 0 -10h-71c18 -63 -48 -68 -106 -47c-7 3 -4 13 3 10
c51 -18 109 -20 91 37h-134c-9 0 -7 10 1 10h124c-10 6 -30 7 -40 16z" /><glyph glyph-name="uni5B83" unicode="&#x5B83;" d="M55 5v138c0 7 10 7 10 0v-85c57 19 102 42 135 68c5 5 13 -5 7 -10c-37 -28 -84 -51 -142 -69c0 -40 -9 -70 41 -66c47 4 119 -17 119 34c1 8 13 3 10 -3c-2 -57 -71 -39 -127 -41c-37 -2 -53 11 -53 34zM129 187h98c33 -1 16 -42 9 -60c-3 -7 -14 -4 -9 4
c3 8 19 46 -2 46h-192c-28 5 -4 -36 -19 -49c-10 5 -3 28 -5 41c-1 12 6 18 22 18h88c-1 8 -11 19 -4 25c11 1 11 -19 14 -25z" /><glyph glyph-name="uni5BB0" unicode="&#x5BB0;" d="M139 151h80c6 0 7 -12 0 -11h-172c-8 -1 -8 11 0 11h81c2 5 -11 17 -5 23c11 2 14 -21 16 -23zM67 131c16 0 18 -20 24 -37c4 -9 -8 -13 -10 -4c-2 14 -17 27 -14 41zM183 82h63c5 0 6 -12 0 -11h-107v-43h103c6 0 6 -10 0 -10h-103v-48c0 -5 -10 -5 -10 0v48h-102
c-7 0 -7 10 0 10h102v43h-107c-5 3 -5 7 0 11h149c8 14 15 29 18 45c1 7 14 4 11 -3c-4 -13 -10 -27 -17 -42zM138 194c52 -6 142 25 102 -55c-3 -7 -15 -2 -10 5c12 27 10 40 -5 40h-186c-17 -3 2 -36 -12 -45c-8 10 -11 55 12 55h89c-3 8 -9 12 -3 18c10 0 9 -8 13 -18z
" /><glyph glyph-name="uni5BB6" unicode="&#x5BB6;" d="M133 189c35 -6 98 15 105 -18c-2 -14 -6 -35 -18 -37c-4 16 22 38 -3 45h-174c-26 3 -1 -36 -17 -48c-7 10 -13 57 11 58h85c-1 7 -10 15 -5 21c12 2 11 -13 16 -21zM203 145c-26 -2 -61 7 -74 -11c11 -13 20 -29 29 -50c23 10 43 23 58 38c11 6 12 -10 1 -13
c-11 -9 -20 -16 -29 -21c11 -40 27 -69 50 -88c6 -4 0 -15 -7 -9c-24 22 -42 52 -51 92c-15 -8 -24 -6 -16 -26c9 -67 -20 -109 -86 -79c-6 3 -6 13 4 9c56 -26 78 13 71 67c-41 -35 -84 -60 -130 -73c-8 -2 -9 10 -1 10c42 11 85 37 129 77c-1 7 -4 16 -9 26
c-37 -29 -75 -51 -114 -66c-9 -4 -11 8 -3 10c45 18 82 40 112 67c-5 9 -11 16 -16 22c-30 -21 -61 -36 -93 -47c-5 -3 -9 7 -3 9c43 17 78 36 103 56h-78c-7 -1 -6 11 0 11h153c5 -5 5 -8 0 -11z" /><glyph glyph-name="uni5BCC" unicode="&#x5BCC;" d="M44 164h170c5 0 5 -10 0 -10h-170c-5 3 -5 7 0 10zM54 135h149c19 2 22 -52 -1 -52h-147c-23 -4 -15 20 -16 39c-1 9 4 13 15 13zM57 125c-11 1 -6 -14 -7 -24c-1 -6 2 -8 8 -8h142c10 -2 11 30 0 32h-143zM41 65h180c9 0 14 -5 13 -15c-4 -27 14 -76 -19 -76h-172
c-34 -2 -14 48 -19 76c-2 10 5 15 17 15zM43 55c-14 1 -7 -19 -9 -31h90v31h-81zM217 55h-83v-31h90c-2 11 5 31 -7 31zM34 14c2 -13 -6 -30 10 -30h80v30h-90zM134 -16h84c11 1 4 20 6 30h-90v-30zM133 194c49 -3 146 19 107 -53c-28 -15 18 44 -18 43h-191
c-13 -1 -5 -23 -7 -35c-14 -13 -10 18 -10 28c-1 11 5 17 17 17h92c-1 4 -12 14 -4 19c9 2 12 -12 14 -19z" /><glyph glyph-name="uni5BF9" unicode="&#x5BF9;" d="M19 200c32 -5 88 15 88 -22c-1 -55 -9 -97 -23 -126c11 -21 21 -40 29 -57c4 -8 -7 -14 -11 -5c-5 12 -13 28 -24 50c-11 -19 -31 -42 -62 -69c-6 -6 -14 3 -8 8c30 24 51 49 64 72c-16 32 -35 69 -58 112c-5 9 7 11 10 4c19 -35 37 -69 53 -102c12 27 19 64 20 110
c0 10 -4 15 -13 15c-23 2 -55 -5 -72 4c0 3 2 5 7 6zM133 132c22 -38 38 -69 48 -92c4 -8 -7 -13 -10 -5c-12 30 -28 60 -47 91c-5 5 6 12 9 6zM214 213c11 -10 2 -38 5 -56c11 -2 30 5 32 -6c-3 -10 -21 -3 -32 -5v-146c-1 -32 -25 -39 -74 -22c-5 2 -8 5 -7 9c1 3 4 4 9 2
c41 -17 62 -13 62 12v145h-90c-8 -1 -7 11 0 11h90c3 18 -6 46 5 56z" /><glyph glyph-name="uni5BFC" unicode="&#x5BFC;" d="M45 210h160c22 2 24 -61 0 -60h-168c3 -20 -10 -45 17 -45h158c12 0 22 13 22 38c0 8 12 4 10 -2c-4 -35 -13 -49 -39 -46v-34c14 -2 39 5 45 -5c-6 -10 -31 -3 -45 -5c4 -64 2 -104 -77 -72c-5 2 -7 5 -6 8s3 4 8 3c41 -17 65 -16 65 5v56h-136c11 -15 21 -32 30 -51
c2 -3 -10 -9 -10 -3c-5 12 -12 25 -22 39c-6 9 -8 14 -4 15h-41c-8 0 -8 10 0 10h183v34h-140c-48 -4 -28 59 -28 97c0 11 6 18 18 18zM44 200c-13 -3 -4 -27 -7 -40h168c10 2 9 35 0 40h-161z" /><glyph glyph-name="uni5C06" unicode="&#x5C06;" d="M60 207v-231c0 -8 -12 -8 -11 0v78c-15 -17 -27 -29 -37 -37c-9 -8 -14 3 -7 9c12 9 27 25 44 46v135c-1 8 11 8 11 0zM13 191c11 -22 18 -48 22 -78c1 -11 -10 -14 -11 -2c-3 25 -10 50 -20 75c-4 9 5 11 9 5zM211 122c12 -3 4 -26 6 -38c10 -2 30 5 31 -6
c-4 -8 -21 -2 -31 -4v-69c3 -35 -24 -45 -79 -28c-10 2 -9 17 3 12c84 -33 63 25 65 85h-125c-8 0 -8 10 0 10h125c2 12 -5 33 5 38zM105 65c20 -8 42 -23 65 -44c7 -7 -1 -17 -8 -10c-22 23 -43 37 -61 44c-12 2 -5 14 4 10zM225 191c-22 7 -56 1 -83 3
c-15 -17 -26 -28 -34 -33c16 -9 35 -20 58 -34c28 14 51 33 59 64zM151 204c27 -2 67 5 86 -5c2 -3 2 -7 -1 -14c-23 -53 -75 -85 -154 -94c-10 -2 -10 10 -1 11c27 3 52 10 73 19c-21 13 -39 24 -55 32c-6 -4 -14 -14 -23 -9c-1 3 0 6 3 9c25 16 46 35 63 58
c3 8 14 -1 9 -7z" /><glyph glyph-name="uni5C0F" unicode="&#x5C0F;" d="M138 202v-202c-1 -36 -46 -24 -74 -16c-8 1 -5 13 4 10c41 -13 60 -10 60 5v203c0 8 10 8 10 0zM59 162c-9 -61 -23 -106 -42 -133c-3 -7 -14 -4 -9 4c18 27 32 70 41 131c1 8 13 5 10 -2zM211 165c18 -54 31 -100 40 -138c3 -7 -8 -12 -10 -3c-10 46 -24 91 -39 136
c-4 6 7 11 9 5z" /><glyph glyph-name="uni5C31" unicode="&#x5C31;" d="M84 183h52c5 0 5 -10 0 -10h-117c-7 0 -7 10 0 10h54c1 11 -11 21 -3 26c12 0 10 -15 14 -26zM177 210c11 -9 2 -38 5 -55h60c6 0 6 -10 0 -10h-60c-3 -65 -18 -122 -50 -168c-4 -6 -14 -1 -9 7c31 47 46 101 48 161c-12 0 -50 -4 -32 10h33v50c0 3 2 4 5 5zM201 204
c18 -18 37 -25 35 -44c-2 -2 -4 -2 -6 1c-9 11 -20 23 -35 36c-6 2 2 11 6 7zM40 150h73c28 5 15 -32 18 -55c3 -25 -27 -15 -48 -17c-6 -45 23 -130 -44 -101c-8 1 -6 14 2 11c21 -8 31 -6 31 6v84c-21 2 -54 -9 -49 17c3 22 -11 55 17 55zM40 140c-14 -4 -4 -30 -7 -45
c-1 -5 2 -7 7 -7h73c14 4 4 31 7 45c0 5 -2 7 -7 7h-73zM200 134v-137c2 -17 41 -16 35 11c1 13 -5 50 11 34c0 -35 5 -74 -38 -66c-12 2 -18 8 -18 22v136c0 5 10 5 10 0zM48 58c-5 -29 -14 -52 -26 -71c-5 -6 -14 2 -8 8c12 19 20 41 24 66c1 7 11 4 10 -3zM114 61
c7 -22 11 -39 14 -52c3 -10 -9 -12 -10 -3c-3 15 -7 32 -14 50c-5 5 7 11 10 5z" /><glyph glyph-name="uni5C42" unicode="&#x5C42;" d="M223 202c26 1 17 -25 17 -46c0 -9 -6 -13 -17 -13h-181c2 -67 -2 -124 -25 -170c-2 -7 -15 -3 -10 4c25 45 25 133 24 210c1 9 7 15 19 15h173zM223 101h-161c-9 0 -7 10 1 10h161c7 0 6 -11 -1 -10zM244 54h-121c-12 -22 -31 -44 -57 -66c50 1 115 2 157 7
c-5 8 -19 23 -28 36c-7 5 1 14 7 7c19 -21 33 -41 44 -60c1 -18 -15 2 -16 8c-49 -5 -105 -7 -168 -7c-13 0 -15 7 -5 14c22 16 40 37 55 61h-62c-7 0 -7 10 0 10h195c5 0 5 -11 -1 -10zM221 192h-169c-18 -1 -7 -24 -10 -39h178c14 -2 7 19 9 31c0 5 -3 8 -8 8z" /><glyph glyph-name="uni5C71" unicode="&#x5C71;" d="M131 208v-219h79c10 -1 13 4 13 15v176c0 6 10 6 10 0v-177c1 -17 -5 -24 -18 -24h-175c-14 1 -21 8 -21 21v182c-1 8 11 8 11 0v-177c-2 -11 3 -16 16 -16h74v219c-1 6 11 5 11 0z" /><glyph glyph-name="uni5E08" unicode="&#x5E08;" d="M80 209c-2 -61 8 -154 -11 -195c-7 -14 -23 -29 -46 -44c-8 -6 -15 8 -6 11c72 22 48 137 52 228c-1 8 11 7 11 0zM32 189v-151c0 -8 -12 -8 -11 0v151c-1 8 11 7 11 0zM240 199h-66v-51c23 -3 65 10 65 -15v-129c-2 -22 -20 -28 -54 -17c-11 3 -8 15 3 12
c26 -7 40 -6 40 6v126c-6 14 -37 4 -54 7v-165c0 -6 -11 -9 -11 -1v166c-16 -2 -41 5 -51 -4v-145c0 -6 -12 -7 -11 0v146c2 22 41 10 62 13v51h-61c-9 -1 -9 11 -1 11h139c7 0 8 -12 0 -11z" /><glyph glyph-name="uni5E0C" unicode="&#x5E0C;" d="M129 177c-4 3 -59 13 -75 17c-9 -1 -5 12 2 9c26 -7 47 -9 87 -19c9 6 23 16 41 29c4 4 13 -4 7 -8c-12 -7 -23 -16 -33 -24c47 -17 69 -14 77 -30c-1 -3 -3 -4 -6 -3c-27 9 -55 17 -84 26c-37 -20 -76 -26 -118 -26c-10 0 -8 10 0 10c38 -1 72 5 102 19zM123 128h126
c6 0 6 -10 0 -10h-133c-13 -11 -27 -24 -42 -37h57c-1 11 -2 38 11 23v-23c33 -5 92 16 92 -23c0 -58 8 -88 -69 -68c-8 2 -6 10 2 10c67 -19 58 5 57 54c0 32 -54 11 -82 17v-96c0 -7 -11 -10 -11 -1v97h-59c-11 1 -14 -4 -14 -14v-66c0 -8 -10 -8 -10 0v70
c-12 -4 -27 -21 -36 -15c-2 3 -1 6 2 8c32 15 61 37 88 64h-82c-8 0 -5 10 1 10h90c3 2 10 12 21 31c2 8 14 1 10 -4z" /><glyph glyph-name="uni5E1D" unicode="&#x5E1D;" d="M86 129c-4 7 -14 36 -16 43h-53c-7 0 -7 10 0 10h105l-1 -1c0 15 -18 22 -15 34c15 -1 21 -22 25 -33h106c5 -3 5 -7 0 -10h-58c-3 -7 -15 -36 -17 -43c29 -4 81 13 81 -17c0 -17 -4 -31 -11 -44c-3 -6 -12 -1 -9 5c6 17 16 38 2 46h-94v-40c28 -5 78 13 77 -20
c-1 -46 13 -100 -52 -67c-8 3 -5 11 3 9c53 -28 39 16 39 53c0 29 -44 9 -67 15v-93c0 -6 -11 -9 -11 -1v94c-20 -4 -62 10 -62 -12v-67c0 -7 -10 -7 -10 0v71c-3 31 46 13 72 18v40h-87c-17 -4 2 -41 -12 -51c-7 11 -14 60 11 61h54zM81 172c2 -7 8 -27 16 -43h55
c6 18 11 32 15 43h-86z" /><glyph glyph-name="uni5E73" unicode="&#x5E73;" d="M27 199h203c7 0 6 -12 -1 -11h-95v-129h108c6 0 7 -12 0 -11h-108v-75c0 -8 -12 -8 -11 0v75h-110c-7 -1 -8 11 -1 11h111v129h-97c-9 0 -6 11 1 11zM206 169c-1 7 13 6 11 -1c-10 -37 -23 -70 -42 -99c-5 -8 -14 -2 -8 7c17 26 30 58 39 93zM52 173
c15 -29 27 -62 37 -99c3 -9 -9 -13 -11 -4c-8 36 -21 69 -36 97c-4 7 6 13 10 6z" /><glyph glyph-name="uni5E7D" unicode="&#x5E7D;" d="M136 206v-218h83c10 -1 13 4 13 15v198c0 6 10 6 10 0v-200c0 -17 -6 -24 -18 -24h-185c-14 1 -21 8 -21 23v199c-1 8 11 8 11 1v-197c-2 -11 3 -15 15 -15h81v218c-1 6 11 6 11 0zM103 33c-3 19 -13 29 -8 40c3 1 6 0 7 -3c5 -24 20 -47 13 -67c-7 0 -8 12 -10 20
c-29 -4 -48 -9 -67 -6c9 26 28 45 49 92c-22 -2 -38 -9 -52 -4c-1 3 0 5 2 9c18 32 31 62 40 90c2 7 12 4 10 -3c-9 -25 -22 -54 -39 -87c5 0 20 2 43 5c3 13 8 17 15 39c2 8 13 3 10 -4c-17 -43 -39 -86 -64 -128c31 3 48 5 51 7zM161 25c12 1 42 3 50 7
c-2 19 -15 30 -7 40c3 1 5 0 7 -3c4 -13 10 -37 16 -58c-2 -18 -15 0 -13 11c-30 -3 -51 -11 -69 -4c17 26 34 53 50 89c-22 -1 -39 -7 -53 -2c14 31 31 62 44 100c2 8 12 4 10 -4c-16 -39 -29 -69 -39 -88c15 0 27 3 42 5c4 9 9 22 15 39c2 8 13 3 10 -4
c-23 -56 -44 -99 -63 -128z" /><glyph glyph-name="uni5E94" unicode="&#x5E94;" d="M141 158c12 -38 18 -80 19 -125c0 -9 -12 -10 -11 0c1 41 -4 82 -17 122c-3 8 8 10 9 3zM191 -11h53c7 0 7 -10 0 -10h-198c-10 0 -10 10 0 10h133c20 37 36 92 47 165c1 7 11 4 10 -2c-11 -68 -26 -122 -45 -163zM66 147c18 -41 30 -85 35 -131c1 -9 -10 -11 -10 -1
c0 38 -16 81 -34 128c-5 8 7 10 9 4zM144 191h94c7 0 7 -10 0 -10h-189c-5 -1 -8 -3 -8 -7c-1 -73 9 -172 -26 -203c-3 -5 -13 3 -8 6c27 25 25 128 24 196c0 12 6 18 17 18h85c-3 6 -11 19 -3 24c10 1 9 -16 14 -24z" /><glyph glyph-name="uni5E95" unicode="&#x5E95;" d="M128 192c-11 24 11 21 11 0h95c7 0 8 -11 1 -11h-191c-8 1 -11 -2 -10 -7c1 -66 2 -155 -20 -186c-4 -6 -15 -5 -11 4c24 26 22 120 20 184c0 11 5 16 22 16h83zM127 10c17 1 24 -20 33 -27c-2 -24 -22 15 -32 20c-3 2 -3 4 -1 7zM178 98h62c5 0 5 -11 -1 -10h-60
c11 -59 25 -94 43 -107c9 1 19 16 19 46c0 7 11 6 9 -2c-5 -33 -13 -51 -25 -56c-25 5 -43 44 -56 119h-98c-1 -33 1 -68 -1 -99c23 5 45 25 60 40c6 6 15 -2 8 -8c-21 -17 -43 -39 -75 -45c-3 1 -3 4 -3 9v152c-1 11 5 17 18 16c52 -1 106 2 146 11c8 2 9 -10 1 -10
c-13 -4 -30 -7 -50 -8c1 -25 2 -41 3 -48zM78 143c-13 -3 -4 -31 -7 -45h96c-1 13 -1 28 -2 47c-26 -2 -78 -3 -87 -2z" /><glyph glyph-name="uni5E97" unicode="&#x5E97;" d="M141 190h95c7 0 7 -10 0 -10h-185c-7 0 -10 -3 -9 -9c-1 -64 6 -139 -21 -176c-5 -7 -15 -2 -9 5c27 38 19 108 19 171c0 13 6 19 20 19h80c0 11 -9 17 -3 23c10 1 10 -19 13 -23zM132 167c13 15 10 -19 10 -31h105c7 0 8 -12 0 -11h-105v-44h77c33 -1 19 -54 19 -83
c0 -14 -6 -21 -19 -21h-138c-37 -1 -18 54 -22 85s47 15 73 19v86zM70 62v-62c0 -8 4 -12 11 -12h138c5 1 9 4 9 10v63c-1 5 -4 8 -9 9h-140c-6 -1 -9 -3 -9 -8z" /><glyph glyph-name="uni5EA7" unicode="&#x5EA7;" d="M143 172v-124h93c7 0 7 -10 0 -10h-93v-52h100c6 0 6 -10 0 -10h-201c-7 0 -7 10 0 10h90v52h-79c-7 0 -7 10 0 10h79v124c-1 6 11 5 11 0zM85 172c9 -10 0 -16 -1 -42c20 -32 36 -37 34 -56c-3 -2 -6 -1 -7 2c-11 16 -21 30 -32 43c-7 -17 -15 -32 -24 -46
c-4 -6 -16 -1 -9 6c19 23 30 52 33 88c1 4 3 6 6 5zM137 194h101c7 0 7 -10 0 -10h-191c-8 0 -12 -3 -11 -9c-2 -75 6 -142 -20 -183c-3 -8 -14 -4 -9 4c25 41 15 106 18 184c11 26 69 9 102 14c0 4 -10 13 -4 18c9 2 12 -12 14 -18zM195 167c1 11 15 2 9 -7
c-2 -11 -4 -21 -5 -29c23 -29 37 -47 43 -55c5 -6 -6 -13 -8 -6c-13 18 -25 35 -38 51c-9 -20 -19 -38 -32 -53c-5 -5 -17 -2 -10 6c23 23 36 54 41 93z" /><glyph glyph-name="uni5EAD" unicode="&#x5EAD;" d="M142 193h98c5 0 5 -10 0 -10h-192c-8 -1 -12 -3 -11 -8c-2 -75 6 -143 -19 -183c-4 -6 -15 -3 -10 5c26 37 17 108 19 181c0 9 6 15 17 15h88c-2 7 -10 11 -5 17c10 2 9 -12 15 -17zM177 143c-8 -2 -67 -7 -49 9c42 -3 74 1 96 11c5 2 9 -4 4 -8c-9 -5 -23 -9 -41 -11
v-51c18 -2 46 5 56 -5c-1 -3 -2 -5 -5 -5h-50v-53c16 -3 43 6 51 -5c0 -3 -1 -5 -4 -5h-111c-8 0 -5 10 1 10h53v53h-55c-7 0 -7 10 0 10h54v50zM247 -23c-74 0 -116 1 -160 29c-11 -11 -24 -21 -39 -30c-7 -4 -13 5 -6 9c20 10 32 20 37 28c-13 17 -22 36 -25 56
c-4 6 9 9 10 3c6 -25 13 -41 21 -50c9 13 14 32 15 57c1 21 -57 -8 -44 23c9 11 37 42 41 50c-11 7 -39 -5 -46 7c9 7 75 12 55 -15c-14 -19 -29 -30 -37 -46c14 -3 43 6 41 -17c-2 -29 -8 -51 -17 -66c25 -21 77 -30 154 -27c8 1 8 -11 0 -11z" /><glyph glyph-name="uni5EB7" unicode="&#x5EB7;" d="M132 172c8 12 14 -4 11 -14c34 -5 95 18 82 -36c10 0 36 2 23 -9h-23c13 -51 -43 -35 -81 -37c17 -44 50 -74 100 -91c6 -2 3 -13 -4 -10c-46 15 -78 42 -97 80c-1 -51 15 -105 -56 -80c-7 2 -4 14 3 10c70 -28 32 51 42 91h-69c-7 0 -6 9 0 9h69v28h-81c-7 0 -6 9 0 9
h81v27h-68c-6 -1 -7 8 -1 9h69v14zM143 149v-27h71c-1 11 3 28 -9 27h-62zM143 113v-28h62c11 -1 9 17 9 28h-71zM227 69c4 5 12 -4 7 -8c-11 -13 -25 -22 -43 -31c-9 -5 -11 6 -4 9c16 7 29 17 40 30zM57 69c18 -10 32 -19 41 -28c5 -5 -2 -13 -7 -7c-9 8 -22 17 -39 26
c-8 3 -1 11 5 9zM117 34c4 5 12 -3 7 -7c-17 -15 -41 -30 -74 -41c-8 -2 -12 9 -3 11c29 8 52 20 70 37zM127 192c-2 4 -11 29 5 17c2 -5 4 -10 6 -17h104c6 0 6 -10 0 -10h-195c-9 0 -13 -4 -12 -13c0 -63 5 -140 -19 -177c-4 -5 -13 -4 -9 4c24 42 15 114 17 178
c0 12 7 18 20 18h83z" /><glyph glyph-name="uni5F00" unicode="&#x5F00;" d="M239 198c-5 -10 -30 -2 -43 -5v-93c16 -2 41 5 49 -5c-7 -11 -34 -2 -49 -5v-117c0 -8 -10 -8 -10 0v117h-116c3 -62 -1 -87 -44 -122c-7 -6 -16 3 -8 8c42 31 45 55 42 114c-17 3 -43 -6 -52 5c8 10 36 3 52 5v93c-14 2 -39 -5 -45 5c0 3 2 5 6 5h211c4 -1 6 -2 7 -5z
M70 193v-93h116v93h-116z" /><glyph glyph-name="uni5F52" unicode="&#x5F52;" d="M82 206c-1 -56 5 -146 -9 -184c-7 -17 -20 -35 -39 -52c-5 -5 -13 0 -9 5c40 40 47 50 47 127v104c0 7 10 7 10 0zM105 199h113c11 -1 17 -6 17 -16v-183c0 -11 -6 -17 -17 -17h-118c-8 0 -8 10 0 10h118c5 0 7 2 7 7v95h-113c-8 0 -8 10 0 10h113v78c0 4 -2 6 -7 6h-113
c-8 0 -8 10 0 10zM30 198v-187c0 -9 -10 -9 -10 0v187c0 8 10 8 10 0z" /><glyph glyph-name="uni5F53" unicode="&#x5F53;" d="M133 209v-77h78c12 -1 19 -7 19 -18v-116c-1 -12 -7 -19 -18 -19h-195c-8 0 -8 10 0 10h195c5 0 8 3 8 9v57h-193c-8 0 -8 10 0 10h193c-3 18 8 51 -8 57h-189c-7 0 -7 10 0 10h99v77c-1 6 11 6 11 0zM216 201c4 8 12 1 9 -6c-10 -19 -25 -37 -42 -56c-5 -6 -13 0 -8 6
c19 21 32 39 41 56zM31 199c15 -15 29 -32 42 -52c4 -7 -7 -15 -9 -6c-13 21 -27 38 -40 51c-7 3 3 11 7 7z" /><glyph glyph-name="uni5F55" unicode="&#x5F55;" d="M51 207h138c11 0 16 -5 16 -16v-69c13 -1 48 5 35 -11h-102v-18c19 -45 53 -76 103 -93c7 0 4 -12 -3 -9c-50 17 -83 44 -100 83c-5 -45 21 -132 -49 -92c-3 3 -5 5 -4 8s4 4 7 2c22 -11 35 -11 35 -2v121h-105c-8 -1 -7 11 0 11h172v32h-129c-10 -1 -9 11 0 11h129
c-2 11 5 31 -8 31h-135c-10 -1 -9 11 0 11zM44 95c-5 5 4 12 9 7c11 -13 23 -28 36 -46c5 -8 -6 -14 -9 -6c-10 15 -21 31 -36 45zM215 100c4 8 13 0 8 -6c-10 -16 -23 -33 -40 -48c-7 -7 -13 3 -6 9c15 12 28 27 38 45zM116 47c-27 -24 -59 -44 -96 -58c-9 -3 -12 7 -4 10
c38 14 69 33 93 56c5 6 12 -3 7 -8z" /><glyph glyph-name="uni5F69" unicode="&#x5F69;" d="M70 122c14 12 9 -19 10 -29c17 -2 45 5 54 -5c-1 -3 -2 -5 -5 -5h-49v-102c0 -6 -10 -9 -10 -1v92c-13 -29 -31 -54 -54 -73c-5 -4 -13 3 -6 7c23 21 41 46 56 77h-49c-9 0 -7 10 1 10h52v29zM220 198c-13 -28 -39 -47 -75 -59c-9 -3 -11 9 -3 11c34 9 58 27 68 52
c3 7 12 3 10 -4zM232 132c-16 -37 -47 -62 -93 -73c-8 -4 -12 10 -4 11c41 8 70 30 87 66c3 6 12 3 10 -4zM244 69c-15 -53 -54 -85 -119 -94c-7 -3 -13 9 -4 10c61 9 99 38 113 88c2 7 12 3 10 -4zM17 195c36 -2 80 2 109 9c8 2 10 -8 2 -9c-33 -6 -70 -10 -111 -10
c-9 -1 -7 10 0 10zM20 170c15 -3 15 -21 25 -42c3 -7 -7 -10 -9 -3c-3 14 -10 26 -17 37c-2 3 -2 6 1 8zM133 174c-7 -19 -16 -36 -26 -52c-4 -6 -16 -3 -9 5c11 13 20 30 26 51c2 8 12 2 9 -4zM60 178c16 -7 24 -38 19 -50c-3 -1 -5 1 -6 5c-3 11 -8 24 -15 37
c-2 3 -1 5 2 8zM90 67c19 -16 33 -30 42 -42c6 -7 -5 -15 -8 -7c-16 19 -30 33 -41 42c-5 4 3 10 7 7z" /><glyph glyph-name="uni5F71" unicode="&#x5F71;" d="M44 206h79c29 1 18 -39 18 -63c0 -10 -5 -14 -14 -14h-85c-23 0 -9 44 -13 66c-1 7 4 11 15 11zM236 194c-16 -23 -42 -41 -77 -52c-6 1 -7 5 -4 11c29 9 53 25 72 47c3 5 11 -3 9 -6zM49 196c-14 1 -8 -12 -9 -23h90c0 8 2 23 -5 23h-76zM40 163c1 -7 -3 -24 4 -24h81
c8 1 4 16 5 24h-90zM243 128c-19 -33 -46 -56 -81 -69c-7 2 -8 6 -4 11c31 13 56 35 75 64c3 4 13 -2 10 -6zM132 83c17 1 11 -19 12 -33c1 -24 -34 -9 -53 -13v-54c-6 -15 -19 -17 -40 -5c-17 21 31 -6 30 7v52c-18 3 -52 -9 -51 12c1 14 -5 34 11 34h91zM48 73
c-13 2 -6 -10 -8 -19c-1 -5 2 -7 7 -7h83c5 1 5 23 0 26h-82zM238 58c2 6 14 1 11 -5c-14 -37 -44 -63 -91 -78c-7 -3 -10 9 -3 11c38 9 66 34 83 72zM54 20c-8 -19 -18 -33 -29 -42c-4 -3 -12 4 -6 8c12 9 20 22 25 37c2 6 12 3 10 -3zM120 25c11 -16 18 -29 21 -39
c2 -4 -8 -10 -10 -4c-3 10 -13 23 -19 37c-2 5 1 7 8 6zM91 109h61c5 0 5 -10 0 -10h-135c-7 0 -7 10 0 10h63c-3 8 -7 10 -3 15c10 0 8 -4 14 -15z" /><glyph glyph-name="uni5F80" unicode="&#x5F80;" d="M74 199c-12 -30 -29 -53 -50 -72c-10 -9 -14 3 -6 10c23 18 37 41 45 66c2 7 15 4 11 -4zM58 93v-117c0 -4 -10 -6 -10 -1v106c-14 -13 -20 -35 -36 -31c-2 3 -1 6 2 9c31 34 51 63 60 88c2 7 13 1 10 -5c-7 -14 -15 -30 -26 -49zM165 171h77c6 0 7 -12 0 -11h-75v-72h69
c5 0 5 -11 -1 -10h-68v-90h79c6 0 6 -10 0 -10h-166c-6 0 -8 11 0 10h77v90h-65c-9 0 -9 10 0 10h65v72h-71c-8 -1 -7 11 0 11h69c-2 12 -15 26 -9 35c13 2 16 -31 19 -35z" /><glyph glyph-name="uni5FC3" unicode="&#x5FC3;" d="M126 206c19 -49 30 -100 33 -153c1 -9 -10 -11 -10 -1c-4 53 -15 104 -32 151c-3 7 6 8 9 3zM90 187v-165c-4 -42 29 -37 66 -37c30 0 42 13 39 52c0 8 9 7 9 0c6 -62 -26 -67 -83 -63c-28 2 -42 16 -42 45v168c-1 6 11 5 11 0zM42 171c-1 -73 -9 -131 -24 -175
c-2 -3 -4 -5 -7 -4s-3 4 -2 7c14 43 22 100 23 173c0 8 10 5 10 -1zM209 172c24 -51 36 -107 36 -169c0 -6 -10 -9 -10 -1c1 61 -10 116 -35 165c-4 8 7 11 9 5z" /><glyph glyph-name="uni6001" unicode="&#x6001;" d="M126 83c16 -32 25 -58 30 -75c2 -10 -9 -10 -11 -1c-8 30 -19 54 -29 71c-5 8 7 11 10 5zM21 -11c-3 -4 -6 -5 -9 -4s-3 4 -1 8c12 25 20 50 23 77c-1 5 12 3 10 -2c-4 -30 -12 -56 -23 -79zM122 -15c48 2 77 -6 73 50c0 8 10 5 10 -1c2 -62 -29 -59 -84 -59
c-58 0 -47 48 -47 99c0 5 10 5 10 0c4 -42 -16 -91 38 -89zM209 74c17 -29 27 -55 32 -79c3 -6 -10 -11 -11 -3c-4 24 -14 49 -30 76c-5 8 5 13 9 6zM107 180c6 7 0 27 10 31c12 -4 2 -16 1 -31h121c5 0 5 -10 0 -10h-93c19 -29 50 -53 92 -70c7 -2 4 -14 -4 -10
c-45 22 -78 47 -99 80h-20c-8 -15 -18 -29 -31 -40c23 -10 43 -19 58 -30c7 -5 -1 -14 -7 -8c-17 12 -37 22 -60 30c-19 -14 -39 -24 -58 -30c-9 -4 -11 8 -3 10c40 13 70 35 90 68h-92c-7 0 -7 10 0 10h95z" /><glyph glyph-name="uni601D" unicode="&#x601D;" d="M51 203h162c36 -4 14 -68 20 -102c-1 -9 -6 -14 -17 -14h-169c-12 0 -18 6 -18 19c0 34 -17 97 22 97zM49 193c-16 -2 -8 -28 -10 -44h87v44h-77zM136 193v-44h87c-1 16 5 41 -9 44h-78zM39 139c2 -14 -6 -41 9 -42h78v42h-87zM136 139v-42h78c15 1 7 28 9 42h-87z
M131 72c12 -17 24 -36 35 -57c4 -5 -6 -13 -9 -7c-14 25 -26 44 -35 57c-7 6 5 13 9 7zM87 68c2 -37 -12 -87 30 -85c36 2 81 -12 76 32c0 9 11 6 11 -1c5 -50 -44 -40 -89 -41c-48 -1 -37 51 -38 95c0 6 10 6 10 0zM202 68c21 -25 37 -51 50 -78c3 -5 -8 -11 -10 -5
c-12 26 -28 52 -49 76c-6 7 5 13 9 7zM38 64c-1 6 11 4 10 -1c-3 -27 -13 -54 -30 -80c-5 -5 -13 2 -9 7c15 21 24 47 29 74z" /><glyph glyph-name="uni603B" unicode="&#x603B;" d="M176 173c21 -2 53 7 51 -16c-2 -24 12 -70 -15 -70h-170c-27 1 -10 46 -15 70c1 9 6 16 17 16h118c14 11 27 24 40 39c4 5 13 -3 8 -7c-7 -8 -19 -19 -34 -32zM42 211c19 3 35 -17 52 -27c2 -6 0 -9 -6 -8c-6 5 -31 20 -44 29c-3 1 -3 3 -2 6zM38 156v-52c0 -4 2 -6 6 -6
h167c4 0 6 2 6 5v53c-1 4 -2 6 -5 6h-167c-5 0 -7 -2 -7 -6zM71 58v-60c-1 -9 4 -15 16 -13c50 7 120 -25 112 44c-1 7 11 4 10 -1c8 -77 -63 -49 -122 -54c-43 -4 -20 50 -26 84c0 6 10 6 10 0zM41 57c-5 -25 -14 -48 -25 -70c-3 -7 -14 -1 -9 5c12 16 24 39 24 67
c0 7 12 3 10 -2zM108 74c19 -17 36 -36 52 -59c3 -7 -6 -13 -9 -5c-17 23 -34 43 -51 58c-5 5 4 10 8 6zM216 59c15 -25 27 -48 36 -67c2 -6 -6 -11 -9 -4c-12 26 -25 48 -36 66c-5 6 5 11 9 5z" /><glyph glyph-name="uni6052" unicode="&#x6052;" d="M48 210c10 -8 5 -35 5 -51v-183c0 -8 -10 -8 -10 0v228c0 3 2 5 5 6zM79 204h162c5 0 5 -10 0 -10h-162c-7 0 -7 10 0 10zM61 158c-4 10 9 10 10 3c-4 -2 22 -76 7 -80c-3 0 -5 3 -5 8c0 20 -7 42 -12 69zM24 160c0 8 11 5 10 -1c-3 -36 -8 -67 -14 -92
c-2 -9 -14 -7 -11 2c9 30 15 61 15 91zM225 146v-119c1 -15 -4 -20 -17 -20h-92c-16 -1 -22 4 -22 17v120c-1 12 6 19 20 19h94c11 -1 17 -6 17 -17zM214 28v54h-110v-56c0 -6 3 -9 9 -9h94c5 -1 7 2 7 11zM248 -26h-178c-6 0 -7 12 0 11h178c6 1 6 -11 0 -11zM214 92v50
c0 7 -3 11 -10 11h-92c-6 0 -8 -4 -8 -12v-49h110z" /><glyph glyph-name="uni6069" unicode="&#x6069;" d="M230 185v-89c1 -13 -5 -18 -16 -18h-167c-15 -1 -20 6 -20 22v86c0 12 6 18 18 18h163c15 -1 22 -7 22 -19zM37 182v-82c-1 -9 3 -12 12 -12h161c6 -1 9 2 9 9v87c0 7 -4 10 -11 10h-159c-9 0 -12 -4 -12 -12zM120 164c4 15 -1 22 8 26c10 -1 1 -22 3 -26h72
c5 0 5 -10 0 -10h-75c-5 -30 -29 -48 -74 -53c-9 -4 -9 8 -3 9c39 5 61 20 66 44h-64c-7 0 -7 10 0 10h67zM90 64c6 -33 -18 -83 26 -79c42 4 82 -15 74 39c-1 6 11 5 11 0c7 -63 -36 -46 -88 -50c-50 -4 -28 50 -33 90c0 5 10 5 10 0zM131 65c15 -20 25 -41 30 -62
c1 -4 -9 -8 -10 -3c-5 21 -15 41 -28 59c-5 3 5 11 8 6zM211 61c16 -20 28 -44 37 -73c3 -5 -8 -9 -10 -3c-8 29 -21 52 -34 69c-6 5 1 12 7 7zM37 58c1 6 10 4 10 -1c-2 -32 -10 -57 -24 -74c-3 -5 -14 2 -9 6c13 17 21 40 23 69zM141 146c21 -9 42 -22 65 -39
c7 -4 3 -16 -5 -9c-19 15 -40 28 -63 39c-6 2 -2 11 3 9z" /><glyph glyph-name="uni60A8" unicode="&#x60A8;" d="M114 191h115c21 -1 25 -15 10 -43c-21 -16 10 43 -10 33h-56v-107c-3 -19 -19 -22 -50 -8c-7 2 -2 13 5 10c24 -11 34 -10 34 5v100h-51c-9 -23 -20 -40 -30 -52c-5 -6 -14 2 -9 7c19 21 30 45 33 73c8 12 14 -6 9 -18zM127 153c-7 -33 -19 -59 -34 -77c-6 -6 -15 0 -9 7
c17 20 28 44 32 72c1 7 14 3 11 -2zM207 156c13 -29 21 -53 26 -74c1 -7 -9 -12 -11 -3c-4 21 -13 45 -25 74c-3 4 7 8 10 3zM49 156v-95c0 -6 -10 -9 -10 -1v79c-10 -11 -13 -25 -28 -25c-2 3 -2 6 0 8c23 20 38 49 45 87c-1 8 13 3 11 -2c-5 -19 -11 -36 -18 -51zM118 49
c20 1 30 -20 44 -38c5 -7 -6 -13 -9 -6c-10 14 -21 26 -33 37c-3 2 -3 4 -2 7zM87 46c19 -9 -12 -63 24 -60c33 2 80 -12 79 25c-1 5 11 5 10 0c5 -44 -47 -33 -87 -35c-42 -3 -29 31 -31 65c0 3 2 4 5 5zM205 48c20 -17 34 -37 42 -60c3 -4 -7 -9 -9 -5
c-13 27 -27 46 -40 58c-7 3 3 11 7 7zM39 42c3 5 7 4 10 -2c-3 -25 -11 -46 -26 -61c-5 -5 -14 2 -9 7c15 15 24 34 25 56z" /><glyph glyph-name="uni60F3" unicode="&#x60F3;" d="M70 208c15 13 9 -22 10 -34c14 -2 38 5 44 -5c0 -3 -1 -5 -4 -5h-38c15 -22 39 -33 40 -55c-3 -2 -5 -2 -7 1c-9 12 -21 26 -35 41v-80c0 -6 -10 -9 -10 -1v72c-13 -25 -30 -43 -50 -56c-8 -6 -13 4 -6 8c24 17 42 40 54 70h-48c-7 0 -7 10 0 10h50v34zM147 203h71
c11 0 17 -5 17 -16v-100c1 -11 -5 -15 -18 -15h-67c-13 -1 -18 5 -18 17v101c-1 9 4 13 15 13zM150 193c-13 0 -5 -18 -7 -29h82c-1 11 4 30 -9 29h-66zM143 154v-30h82v30h-82zM143 114c2 -11 -6 -35 7 -32h67c14 -2 6 21 8 32h-82zM126 69c14 -15 25 -34 34 -57
c3 -8 -7 -13 -10 -5c-8 21 -18 39 -31 54c-5 4 4 12 7 8zM85 60c17 -14 -11 -75 32 -72c33 2 76 -11 71 29c-1 6 11 5 11 0c4 -51 -39 -37 -81 -40c-45 -3 -38 37 -38 78c0 3 2 4 5 5zM206 54c16 -17 29 -38 38 -65c3 -4 -7 -11 -9 -5c-9 27 -21 48 -36 62c-6 6 3 12 7 8z
M48 49c-1 -31 -10 -53 -27 -68c-4 -3 -12 3 -7 7c15 14 22 34 23 61c-1 6 11 5 11 0z" /><glyph glyph-name="uni610F" unicode="&#x610F;" d="M50 24c-3 -18 -12 -34 -27 -47c-6 -6 -15 1 -8 7c12 10 21 25 25 43c2 7 13 3 10 -3zM77 26c9 17 11 -10 10 -21c-2 -29 41 -21 70 -23c21 -1 31 6 30 23c0 7 11 4 11 -1c2 -43 -42 -33 -82 -33c-34 0 -42 20 -39 55zM122 32c19 1 28 -23 35 -29c5 -7 -6 -13 -9 -6
c-8 15 -24 21 -26 35zM203 30c17 -14 33 -29 47 -44c7 -6 -3 -14 -8 -8c-13 16 -28 30 -45 43c-6 5 -1 13 6 9zM57 121h153c31 1 20 -37 20 -63c0 -12 -7 -17 -21 -17h-153c-29 -2 -19 35 -21 60c0 13 7 20 22 20zM120 206c1 16 16 -2 15 -14h99c6 0 6 -10 0 -10h-46
l-11 -33h70c5 0 5 -10 0 -10h-232c-5 3 -5 7 0 10h68l-11 33h-44c-7 0 -7 10 0 10h97c-1 6 -3 11 -5 14zM83 182l11 -33h72l11 33h-94zM207 52c14 -3 12 11 12 24h-174c0 -12 -1 -24 12 -24h150zM58 110c-16 1 -13 -10 -13 -24h174c0 12 1 24 -11 24h-150z" /><glyph glyph-name="uni611F" unicode="&#x611F;" d="M145 193c-6 27 14 18 12 0c15 -2 39 5 46 -5c-6 -10 -30 -3 -44 -5c5 -23 14 -46 27 -68c7 18 12 33 16 46c1 6 12 2 9 -4c-3 -15 -10 -33 -19 -54c11 -19 22 -31 31 -36c3 1 7 13 10 38c1 6 10 4 10 -2c0 -70 -21 -57 -57 -11c-17 -24 -20 -39 -37 -40c-2 2 -2 4 0 7
c13 14 23 29 31 44c-14 23 -25 50 -32 80h-105c-15 -7 -5 -39 -7 -57c-3 -21 -5 -44 -12 -68c-2 -6 -6 -8 -9 -7s-4 5 -2 11c15 42 12 65 12 113c0 13 5 18 18 18h102zM127 47c14 -2 13 -24 19 -40c3 -9 -8 -9 -9 -4c-2 19 -14 32 -10 44zM78 47c16 -13 -12 -64 25 -62
c39 2 87 -12 79 36c-1 6 11 5 11 0c6 -55 -41 -46 -88 -46c-41 0 -31 31 -32 66c0 4 2 6 5 6zM50 43c-7 -19 -15 -39 -26 -58c-6 -9 -16 -1 -9 8c11 13 18 31 25 52c1 8 13 5 10 -2zM205 47c13 -15 24 -32 35 -52c4 -7 -7 -14 -10 -6c-8 18 -19 34 -32 49c-8 5 0 16 7 9z
M54 163h79c7 0 8 -12 0 -11h-79c-8 -1 -7 11 0 11zM122 134c26 3 16 -35 16 -57c0 -27 -45 -12 -69 -15c-26 -4 -16 35 -16 57c0 26 45 13 69 15zM127 119c-10 11 -40 2 -58 5c-11 -7 -2 -32 -5 -47c-1 -3 1 -5 5 -5h53c3 0 5 2 5 5v42zM216 206c8 -9 16 -21 25 -36
c3 -14 -10 -9 -13 0c-6 17 -19 23 -20 36c3 3 5 3 8 0z" /><glyph glyph-name="uni6211" unicode="&#x6211;" d="M74 182c-16 -4 -29 -5 -51 -7c-11 0 -7 11 0 11c35 2 67 9 96 23c6 2 10 -7 4 -10c-10 -5 -22 -10 -38 -15v-51h64c-1 15 -2 38 -3 71c-1 6 11 6 11 0c0 -31 1 -48 4 -71h81c6 0 7 -12 0 -11h-80c3 -27 8 -52 17 -77c11 14 20 34 29 60c1 7 13 2 10 -4
c-8 -27 -19 -49 -34 -67c13 -27 26 -45 41 -53c5 -1 12 14 12 44c0 9 10 7 10 -1c-4 -96 -44 -48 -70 1c-16 -17 -37 -30 -61 -41c-10 -5 -16 6 -6 9c25 10 46 24 62 43c-11 25 -18 53 -21 86h-66v-56c23 5 37 17 50 10c-3 -12 -35 -14 -50 -21c-4 -30 11 -77 -15 -84
c-13 -4 -44 1 -49 17c2 3 5 4 9 2c59 -34 42 24 44 62c-17 -5 -35 -10 -53 -15c-9 -3 -11 9 -2 11c12 2 30 8 55 15v59h-59c-8 -1 -8 11 0 11h59v49zM180 198c17 -11 33 -25 47 -41c4 -5 -1 -14 -6 -8c-20 21 -36 34 -47 41c-7 3 0 12 6 8z" /><glyph glyph-name="uni6216" unicode="&#x6216;" d="M243 37c-11 -102 -25 -82 -57 11c-21 -29 -49 -54 -84 -74c-8 -4 -14 6 -5 10c38 23 66 49 85 78c-11 37 -19 74 -22 111h-142c-8 -1 -8 11 0 11h140c-5 8 -1 39 10 20c-1 -10 0 -17 1 -20h42c5 0 6 -12 0 -11h-40c4 -36 10 -68 19 -97c7 12 16 33 22 64c2 8 12 4 10 -3
c-7 -27 -15 -53 -28 -77c23 -61 31 -111 39 -23c-1 6 11 6 10 0zM218 202c9 -13 18 -27 26 -42c2 -5 -6 -12 -9 -6c-5 12 -14 26 -25 43c-4 4 5 8 8 5zM132 37c5 3 9 -8 4 -10c-33 -13 -71 -23 -115 -28c-9 -1 -9 7 -2 9c41 5 78 15 113 29zM31 132c-4 37 56 16 87 21
c36 5 18 -53 21 -83c3 -34 -58 -14 -88 -19c-34 -5 -16 52 -20 81zM118 142h-69c-6 0 -8 -3 -8 -10v-59c-1 -8 3 -11 10 -11h69c6 -1 9 2 9 8v61c0 7 -4 11 -11 11z" /><glyph glyph-name="uni6240" unicode="&#x6240;" d="M47 181c-16 -1 -8 -19 -10 -33c28 -6 83 14 83 -17c0 -27 12 -77 -18 -76h-65c-2 -27 -8 -52 -17 -74c-1 -6 -13 -5 -10 2c25 60 15 114 17 189c-1 11 5 17 16 19c24 3 48 8 72 15c6 3 10 -8 4 -9c-25 -8 -49 -14 -72 -16zM166 179c-19 -2 -8 -25 -11 -41h91
c15 -15 -22 -9 -32 -10v-155c0 -5 -10 -5 -10 0v155h-49c5 -78 -8 -120 -61 -151c-8 -4 -14 7 -5 9c63 33 58 96 56 183c0 13 4 19 17 20c20 2 42 8 65 16c7 2 10 -9 3 -11c-23 -7 -45 -13 -64 -15zM102 138h-65v-73h61c8 -1 12 2 12 8v58c-1 4 -3 7 -8 7z" /><glyph glyph-name="uni624B" unicode="&#x624B;" d="M142 130h89c6 0 6 -10 0 -10h-87c3 -17 6 -36 8 -56h90c6 0 6 -10 0 -10h-90c2 -84 -27 -102 -91 -69c-3 5 -1 8 5 9c66 -31 71 -7 74 60h-119c-7 0 -7 10 0 10h119c-1 20 -4 38 -7 56h-103c-7 0 -7 10 0 10h100c-5 20 -11 37 -17 51c-29 -1 -58 -1 -88 1
c-8 0 -5 11 1 11c72 -5 138 -1 199 14c5 3 9 -8 4 -9c-29 -8 -64 -13 -105 -16c5 -13 11 -30 18 -52z" /><glyph glyph-name="uni626C" unicode="&#x626C;" d="M98 207h122c11 -1 13 -6 6 -13c-32 -29 -71 -54 -117 -75h118c11 0 16 -6 16 -18c-7 -130 -5 -150 -92 -122c-6 3 -2 12 5 9c70 -26 70 -10 77 107c1 17 -15 14 -30 14c-15 -67 -50 -113 -105 -139c-10 -4 -14 7 -5 10c51 24 84 67 98 129h-43c-17 -45 -44 -80 -80 -104
c-6 -5 -13 5 -6 8c37 26 62 58 74 96c-16 1 -62 -6 -42 13c51 24 91 47 118 73c-34 5 -77 1 -115 2c-8 0 -8 10 1 10zM47 213c11 -10 2 -39 5 -57c12 -1 47 5 34 -10h-34v-62c13 1 24 17 38 14c-3 -15 -19 -15 -38 -26c-7 -40 23 -124 -39 -97c-19 20 29 -2 29 10v83
c-6 -1 -25 -13 -31 -5c2 12 25 11 31 17v66c-11 -1 -44 -1 -24 10h24v52c0 3 2 4 5 5z" /><glyph glyph-name="uni62E8" unicode="&#x62E8;" d="M151 158h93c6 0 9 -10 1 -10h-97c-3 -11 -6 -22 -10 -35h87c12 -1 15 -8 10 -23c-9 -28 -22 -52 -41 -71c15 -13 34 -26 57 -39c6 -3 0 -13 -6 -10c-19 10 -39 24 -60 42c-23 -17 -53 -32 -92 -45c-9 -3 -11 9 -3 12c40 13 68 28 87 41c-17 21 -30 41 -39 62
c-6 8 6 14 10 6c9 -22 21 -42 37 -60c15 15 28 35 38 60c3 10 1 16 -7 16h-81c-17 -47 -39 -85 -67 -116c-7 -8 -16 3 -8 9c37 41 62 91 76 151c-19 3 -51 -9 -43 17c4 15 7 25 10 37c20 19 7 -24 3 -34c-8 -18 21 -7 33 -10c0 4 8 39 11 50c0 9 15 5 12 -3
c-3 -11 -7 -27 -11 -47zM202 207c16 -10 30 -21 42 -34c6 -6 -1 -14 -7 -8c-14 13 -28 24 -42 33c-7 4 0 14 7 9zM46 212c11 -8 2 -36 5 -52c11 1 42 1 25 -10h-25v-67c15 7 29 14 40 21c7 4 12 -6 6 -10c-21 -12 -37 -20 -46 -23v-82c2 -17 -22 -20 -38 -15
c-17 20 36 0 28 17v75c-8 -2 -25 -13 -33 -5c1 13 24 12 33 18v71c-11 -1 -43 -2 -26 10h26c3 16 -6 44 5 52z" /><glyph glyph-name="uni6323" unicode="&#x6323;" d="M170 155c17 16 32 24 38 38c-23 5 -54 1 -80 2c-11 -14 -25 -26 -39 -39c-7 -7 -15 3 -7 8c19 14 34 30 45 48c5 9 15 0 9 -7c27 -3 67 6 86 -5c-2 -19 -26 -36 -36 -45c19 0 41 3 40 -17v-37c11 3 32 -3 16 -10h-16c-3 -25 10 -65 -21 -58h-45c-1 -31 8 -69 -27 -65
c-12 1 -35 4 -38 18c2 2 5 2 9 1c50 -22 48 7 46 46h-63c-7 0 -7 10 0 10h63v48h-69c-7 0 -7 10 0 10h69v44h-52c-7 0 -7 10 0 10h72zM51 207v-45c11 2 37 -1 20 -10h-20v-56c12 8 22 17 29 26c6 1 8 -1 7 -8c-12 -13 -24 -23 -36 -32c-5 -42 20 -132 -39 -106
c-15 22 29 -6 29 16v83c-13 -6 -22 -21 -34 -14c3 14 30 20 34 28v63c-12 0 -46 -3 -28 10h28v45c0 5 10 5 10 0zM160 145v-44h55c-2 16 6 44 -10 44h-45zM160 91v-48c20 4 55 -11 55 13v35h-55z" /><glyph glyph-name="uni632A" unicode="&#x632A;" d="M224 205c29 -9 -9 -78 -4 -91c10 -30 33 -87 21 -104c-8 -12 -21 -14 -41 -7c-4 5 -3 8 3 9c17 -8 27 -4 30 11c12 26 -35 79 -17 117l10 45c3 16 -14 10 -26 11c-5 0 -6 -2 -6 -7v-212c0 -5 -10 -7 -10 -1v216c-1 18 24 12 40 13zM159 187v-197c2 -17 -12 -20 -41 -9
c-6 1 -3 13 3 10c19 -9 29 -8 29 1v69h-37c-4 -34 -14 -61 -30 -80c-6 -2 -9 0 -9 6c17 22 27 47 29 74c-10 0 -44 -3 -28 9h29v57c-11 0 -43 -3 -28 9h28v58c-11 1 -47 -4 -32 9h70c11 -1 17 -6 17 -16zM113 194v-58h37v54c-5 8 -25 2 -37 4zM113 127v-57h37v57h-37z
M45 205v-50c10 1 34 0 20 -9h-20v-67c8 2 13 17 25 17c3 -15 -18 -21 -25 -30v-82c-1 -10 -11 -12 -30 -6c-15 18 22 0 21 10v73c-4 -2 -22 -14 -31 -8c2 13 23 11 31 20v73c-11 0 -42 -2 -25 9h25v50c0 6 9 5 9 0z" /><glyph glyph-name="uni6346" unicode="&#x6346;" d="M57 209v-47c11 1 37 1 22 -10h-22v-63c11 4 19 19 30 14c2 -3 2 -5 0 -6c-8 -7 -18 -14 -30 -21c-8 -39 25 -127 -40 -92c-18 22 42 -11 29 9v77c-1 2 -22 -19 -34 -13c2 15 26 17 34 25v70c-11 1 -46 -4 -30 10h30c3 16 -6 43 5 51c3 0 5 -1 6 -4zM164 187
c9 -3 3 -23 5 -33c16 -3 44 6 52 -5c-8 -11 -36 -2 -52 -5v-12c13 -17 31 -43 52 -80c4 -8 -7 -14 -10 -5c-9 20 -23 44 -42 71v-117c0 -4 -10 -4 -10 0v124c-9 -31 -23 -60 -40 -89c-4 -8 -16 -3 -9 6c21 31 36 65 45 102c-14 2 -38 -5 -45 5c8 10 33 3 49 5
c2 11 -5 30 5 33zM109 205h113c11 -1 19 -8 19 -19v-190c0 -13 -6 -19 -18 -19h-115c-10 1 -16 7 -16 16v196c0 10 6 16 17 16zM230 -5v190c-1 6 -3 10 -8 10h-111c-5 -1 -8 -3 -8 -7v-192c0 -5 2 -9 7 -9h110c7 1 10 3 10 8z" /><glyph glyph-name="uni63A2" unicode="&#x63A2;" d="M223 190h-106c-23 1 -1 -37 -17 -46c-6 10 -15 56 10 57h117c21 -1 18 -39 7 -49c-4 -7 -13 -3 -8 6c9 20 8 32 -3 32zM171 141c10 -6 3 -30 5 -44h66c6 0 7 -12 0 -11h-63c26 -46 49 -77 68 -94c5 -4 -1 -14 -5 -10c-27 26 -49 57 -66 92v-99c0 -6 -10 -6 -10 0v93
c-15 -31 -39 -58 -73 -80c-8 -5 -16 4 -7 9c34 18 59 49 78 89h-61c-8 -1 -8 11 0 11h63c2 14 -5 38 5 44zM49 62c-10 -1 -31 -19 -38 -9c-2 14 23 9 38 20v76c-12 1 -48 -5 -32 10h32v49c0 6 10 6 10 0v-49c10 -1 39 4 27 -10h-27v-72c7 -2 23 19 33 11
c-1 -13 -17 -14 -33 -22c-3 -42 16 -116 -43 -86c-14 20 45 -7 33 17v65zM152 165c-14 -17 -32 -32 -54 -43c-10 -5 -15 6 -5 9c21 12 38 25 50 40c4 7 15 0 9 -6zM244 132c5 -5 -3 -17 -7 -9c-15 15 -34 29 -57 40c-8 2 -4 14 6 9c23 -12 43 -25 58 -40z" /><glyph glyph-name="uni6444" unicode="&#x6444;" d="M82 204h159c14 -10 -11 -10 -20 -9v-86c9 1 36 4 24 -8l-24 -1c3 -11 -3 -34 -10 -17v16l-127 -7c-17 8 9 13 18 11v92c-10 -1 -37 0 -20 9zM128 66h-49c-7 0 -7 10 0 10c23 -4 70 13 64 -18c-5 -23 -26 -35 -5 -46c5 -5 13 -7 11 -15c-12 -5 -15 9 -28 15
c-15 -17 -32 -31 -50 -41c-8 -4 -14 5 -7 9c15 7 31 19 49 38c-14 13 -30 14 -36 28c14 8 25 -13 42 -18c13 23 16 35 9 38zM43 215c10 -9 2 -36 5 -53c11 1 41 2 26 -10h-26v-70c11 1 22 17 32 10c-3 -13 -23 -16 -32 -21c-4 -39 18 -121 -39 -96c-15 23 29 -8 29 20v73
c-18 -5 -26 -13 -34 -5c1 12 22 9 34 15v74c-11 0 -45 -2 -27 10h27v48c0 3 2 4 5 5zM222 66h-64c-7 0 -7 10 0 10c25 -3 63 6 79 -6c0 -26 -18 -44 -31 -65c16 -11 30 -20 41 -25c6 -2 1 -12 -5 -9c-10 6 -25 15 -44 28c-16 -12 -35 -22 -57 -30c-9 -3 -14 7 -5 10
c20 6 38 15 54 26c-11 11 -21 27 -29 46c-5 8 7 10 9 4c7 -15 16 -29 27 -42c8 8 31 39 25 53zM211 195h-99v-24h99v24zM211 161h-99v-22h99v22zM211 129h-99v-26l99 5v21z" /><glyph glyph-name="uni6539" unicode="&#x6539;" d="M144 186h96c14 -13 -13 -12 -23 -11c-1 -64 -10 -109 -28 -135c8 -13 27 -30 58 -53c4 -3 5 -6 4 -9c-2 -3 -6 -4 -10 -1c-20 14 -39 32 -59 53c-22 -23 -49 -42 -82 -55c-9 -3 -13 8 -4 11c36 15 62 34 78 53c-19 29 -31 63 -38 101c-7 -25 -13 -43 -19 -55
c-4 -8 -15 -5 -10 5c16 33 25 72 27 117c10 17 13 -14 10 -21zM94 201c30 2 13 -46 17 -71c6 -36 -46 -16 -75 -21c-5 -1 -7 -3 -7 -7v-103c25 -3 55 13 82 28c5 5 11 -6 5 -9c-27 -16 -56 -26 -85 -32c-10 -2 -13 0 -13 9v107c0 29 47 13 72 17c7 -1 11 3 11 11v54
c0 5 -2 7 -7 7h-74c-8 0 -8 10 0 10h74zM206 175h-63c2 -49 15 -91 39 -126c15 24 23 66 24 126z" /><glyph glyph-name="uni6545" unicode="&#x6545;" d="M68 208c14 13 9 -19 10 -30h55c8 0 8 -10 0 -10h-55v-56c20 0 45 5 44 -17v-95c-4 -29 -57 -13 -86 -17c-11 1 -16 6 -16 17v97c-1 22 29 13 48 15v56h-55c-8 0 -5 10 2 10h53v30zM164 177h75c16 -8 -6 -13 -15 -10c-1 -62 -10 -107 -28 -136c8 -14 24 -30 47 -49
c6 -5 -1 -14 -7 -9c-17 16 -33 32 -47 48c-17 -21 -38 -39 -64 -52c-6 -2 -14 9 -6 11c23 9 44 25 63 50c-13 25 -23 58 -29 99c-8 -19 -8 -45 -24 -49c-3 1 -4 5 -2 9c17 41 28 80 29 119c15 14 10 -19 8 -31zM213 167h-50c-5 -32 3 -74 26 -126c17 29 25 71 24 126zM30 90
v-87c0 -6 3 -9 9 -10c24 4 63 -9 73 9v88c-6 21 -47 11 -70 11c-8 0 -12 -4 -12 -11z" /><glyph glyph-name="uni6559" unicode="&#x6559;" d="M218 173h-48c-1 -43 7 -83 24 -120c13 32 21 72 24 120zM172 183h70c13 -7 -4 -13 -14 -10c-3 -56 -13 -100 -28 -131c15 -25 30 -45 46 -60c5 -4 -4 -12 -7 -9c-15 13 -30 33 -45 58c-16 -22 -33 -42 -52 -60c-5 -4 -13 3 -7 8c23 20 40 42 53 63c-13 28 -22 58 -26 89
c-4 -14 -3 -36 -16 -39c-3 1 -3 4 -2 8c11 30 17 65 19 106c11 13 11 -9 9 -23zM64 210c9 17 12 -11 10 -22c19 3 50 -9 50 13c2 6 11 2 9 -4c-7 -21 -16 -39 -26 -54c13 -2 35 6 39 -6c-6 -11 -31 -2 -45 -5c-9 -12 -18 -22 -27 -29c20 -3 63 10 57 -15
c-5 -5 -32 -21 -45 -29c3 -7 10 -10 16 -18c15 -1 37 11 46 0c1 -3 -1 -4 -4 -5l-37 -5c13 -46 -22 -75 -69 -50c-6 3 -3 16 5 11c34 -21 70 -1 53 38l-71 -10c-10 -3 -10 10 -1 11l66 8c-3 10 -27 13 -14 26c11 6 32 17 43 25c-16 3 -47 6 -61 -1c-23 -11 -29 -25 -46 -21
c-1 3 0 5 4 8c32 16 56 35 73 56h-69c-8 -1 -7 11 0 11h44v34c-15 2 -39 -5 -46 5c5 12 31 3 46 6v22zM74 177v-34c31 -5 28 14 41 34h-41z" /><glyph glyph-name="uni6563" unicode="&#x6563;" d="M46 205c11 13 11 -12 10 -22h44c0 10 -3 37 10 24v-24c11 -1 41 4 28 -10h-28v-33c12 -1 48 4 33 -10h-127c-14 13 19 10 30 10v33c-10 0 -41 -3 -25 10h25v22zM100 173h-44v-33h44v33zM133 97c0 -52 30 -152 -52 -115c-7 3 -1 13 4 10c44 -22 39 6 38 38h-86v-52
c-3 -4 -7 -4 -10 0v119c-1 11 4 16 16 16h71c13 0 19 -5 19 -16zM45 103c-14 1 -6 -16 -8 -27h86c-2 11 5 27 -9 27h-69zM37 66v-26h86v26h-86zM172 183h68c10 -6 -6 -13 -14 -10c-1 -47 -10 -89 -25 -127c17 -27 33 -45 48 -55c5 -4 -4 -13 -7 -8c-15 11 -31 29 -48 53
c-15 -24 -29 -42 -42 -55c-7 -5 -13 4 -7 8c12 11 26 30 43 57c-12 24 -21 51 -27 81c-5 -13 -7 -39 -21 -46c-3 1 -4 4 -3 8c16 36 25 75 26 117c12 11 12 -8 9 -23zM171 173c-10 -43 9 -78 23 -115c13 33 21 72 22 115h-45z" /><glyph glyph-name="uni65A5" unicode="&#x65A5;" d="M59 201c64 -1 106 2 163 9c7 2 8 -12 1 -11c-61 -6 -116 -9 -165 -8c-20 0 -7 -32 -11 -49h198c7 0 7 -10 0 -10h-87v-61c31 -21 60 -43 88 -64c8 -7 -3 -11 -10 -7c-32 25 -58 45 -78 58v-83c0 -6 -12 -7 -11 0v88c-16 11 -34 22 -53 34c-8 3 -1 13 6 9
c25 -15 40 -24 47 -29v55h-100c2 -57 -5 -101 -29 -137c-4 -6 -13 0 -8 5c32 43 26 112 26 184c0 11 8 17 23 17z" /><glyph glyph-name="uni65C5" unicode="&#x65C5;" d="M138 185h100c8 0 10 -10 1 -10h-104c-8 -20 -18 -34 -30 -44c-6 -6 -14 3 -8 8c18 15 29 37 32 66c12 14 14 -11 9 -20zM55 179c-1 15 -12 23 -4 31c12 -2 9 -17 15 -31c14 -2 38 5 44 -5c-1 -3 -2 -5 -5 -5h-56v-37c24 0 49 5 48 -22c-2 -62 4 -86 -7 -121
c-6 -19 -22 -21 -46 -10c-8 3 -4 15 4 10c31 -17 35 4 37 31c1 13 1 43 1 90c0 18 -22 11 -37 12c-3 -61 -12 -109 -27 -143c-3 -8 -15 -3 -11 4c21 47 29 113 27 186c-11 -2 -41 0 -21 10h38zM170 128c-1 -4 -47 -2 -41 -21v-123c21 6 36 17 49 24c5 5 11 -6 5 -8
c-16 -11 -33 -20 -50 -27c-10 -4 -15 -1 -15 9v129c-1 12 4 18 17 20c37 6 67 17 90 28c4 4 12 -8 5 -11c-26 -9 -42 -16 -48 -17c0 -22 4 -43 10 -58c15 9 27 20 38 32c4 6 15 -2 9 -8c-14 -13 -28 -25 -44 -36c13 -35 28 -61 47 -78c6 -5 -3 -15 -8 -8
c-37 35 -58 86 -64 153z" /><glyph glyph-name="uni65E0" unicode="&#x65E0;" d="M25 201h198c7 0 7 -10 0 -10h-102c-3 -28 -7 -51 -10 -69h124c8 0 8 -10 0 -10h-86v-116c0 -21 35 -15 56 -15c19 0 29 19 27 56c0 10 10 6 10 -1c1 -64 -18 -69 -72 -65c-22 1 -32 9 -32 26v115h-30c-16 -61 -45 -108 -88 -143c-7 -5 -13 4 -6 8c45 41 72 86 83 135h-84
c-9 0 -9 10 0 10h86c5 19 8 42 11 69h-85c-8 0 -8 10 0 10z" /><glyph glyph-name="uni65E5" unicode="&#x65E5;" d="M39 182v-87h179v84c1 7 -3 10 -10 10h-159c-7 0 -10 -2 -10 -7zM229 180v-182c0 -11 -6 -16 -17 -16h-166c-12 0 -17 6 -17 17v186c0 9 5 14 15 14h168c11 1 17 -6 17 -19zM39 85v-83c-1 -6 2 -9 9 -9h157c10 -1 14 2 13 9v83h-179z" /><glyph glyph-name="uni65F6" unicode="&#x65F6;" d="M29 186v-80h56v80c-4 12 -29 3 -43 6c-10 0 -14 -2 -13 -6zM29 96v-91c-1 -18 29 -7 44 -10c8 0 12 3 12 10v91h-56zM18 188c-1 22 39 11 60 14c13 1 18 -5 18 -19v-180c2 -26 -37 -18 -60 -18c-13 0 -18 5 -18 15v188zM134 126c17 -27 29 -56 37 -88
c3 -11 -8 -14 -10 -4c-8 32 -22 60 -37 85c-6 6 6 13 10 7zM213 214c10 -10 3 -40 5 -58c10 -1 28 4 30 -5c-2 -10 -20 -3 -30 -5v-143c-1 -37 -24 -46 -71 -25c-5 3 -8 6 -7 9c2 4 5 5 10 3c40 -18 58 -14 58 13v143h-92c-9 -1 -9 9 -1 10h93v52c0 3 2 5 5 6z" /><glyph glyph-name="uni660E" unicode="&#x660E;" d="M156 210h73c12 0 18 -6 18 -19v-198c0 -23 -20 -29 -61 -17c-7 1 -4 13 3 10c69 -27 43 25 48 69h-89c-1 -38 -22 -66 -61 -83c-8 -2 -12 8 -4 10c76 19 54 123 54 210c0 12 6 18 19 18zM160 200c-23 -2 -7 -41 -12 -62h89c-4 21 10 62 -13 62h-64zM148 127v-61h89v61
h-89zM35 204c25 -4 74 13 74 -16v-160c0 -9 -5 -12 -14 -12h-61c-13 -2 -18 3 -15 15v162c-1 8 4 13 16 11zM99 115v71c0 5 -2 8 -7 8h-56c-5 0 -7 -2 -7 -7v-72h70zM99 33v72h-70v-70c-1 -7 2 -9 11 -9h53c3 0 6 2 6 7z" /><glyph glyph-name="uni662F" unicode="&#x662F;" d="M65 205h132c32 2 21 -42 21 -69c0 -12 -7 -17 -20 -17h-134c-32 -3 -16 41 -20 67c1 12 8 19 21 19zM197 195h-133c-13 0 -8 -16 -9 -28h152c-1 12 4 28 -10 28zM55 157c2 -10 -5 -28 7 -28h138c10 -2 6 18 7 28h-152zM239 87h-104v-38h95c5 0 7 -10 1 -10h-96v-53
c34 -4 73 -4 112 -4c6 0 6 -10 0 -10c-82 -3 -151 -1 -186 47c-12 -17 -26 -33 -42 -49c-5 -5 -14 5 -7 8c35 27 52 60 51 98c-1 6 11 6 11 0c-1 -11 -3 -26 -8 -47c11 -17 30 -31 59 -40v98h-100c-9 0 -9 10 0 10h214c7 0 7 -10 0 -10z" /><glyph glyph-name="uni663E" unicode="&#x663E;" d="M52 209h155c11 -1 17 -7 17 -18v-79c0 -27 -38 -14 -62 -17v-112h84c6 0 6 -10 0 -10h-230c-8 0 -8 10 0 10h78v112c-24 3 -62 -10 -62 18v79c0 11 7 17 20 17zM50 199c-16 -1 -5 -28 -8 -41h172c-2 13 5 37 -6 41h-158zM42 148c3 -14 -8 -43 8 -43h158c11 4 4 29 6 43
h-172zM104 95v-112h48v112h-48zM37 78c11 -19 21 -43 31 -74c1 -5 -8 -7 -10 -3c-10 30 -20 54 -30 73c-4 7 7 9 9 4zM230 73c-10 -26 -20 -51 -33 -72c-3 -2 -13 -2 -9 5c13 23 25 47 33 71c2 7 11 1 9 -4z" /><glyph glyph-name="uni666F" unicode="&#x666F;" d="M50 205h151c25 2 17 -34 18 -56c0 -12 -5 -17 -16 -17h-79c2 -5 4 -11 6 -19h113c6 0 7 -9 0 -9h-233c-8 0 -5 9 1 9h109c-3 8 -5 14 -7 19c-27 5 -78 -13 -78 17c0 21 -8 56 15 56zM53 195c-12 1 -7 -12 -8 -21h164c0 9 3 21 -7 21h-149zM45 164c1 -8 -4 -22 6 -22h152
c10 0 5 14 6 22h-164zM58 85h136c23 0 19 -14 19 -34c-1 -10 -5 -15 -13 -15h-67c-2 -28 10 -68 -24 -63c-20 3 -35 1 -39 13c2 3 5 4 9 3c60 -19 41 8 44 47h-68c-19 -1 -24 49 3 49zM62 75c-16 4 -16 -29 -2 -29h137c7 0 11 29 -2 29h-133zM76 20c-14 -16 -34 -31 -60 -41
c-8 -3 -11 7 -3 10c23 7 41 21 56 38c4 5 10 -3 7 -7zM174 27c26 -16 47 -30 63 -43c6 -4 0 -13 -7 -8c-11 9 -32 25 -62 43c-7 4 -2 13 6 8z" /><glyph glyph-name="uni6697" unicode="&#x6697;" d="M14 186c-3 23 67 24 67 -1v-183c4 -24 -67 -27 -67 -2v186zM24 181v-83h46v83c0 16 -20 10 -34 11c-8 0 -12 -4 -12 -11zM70 88h-46v-85c-2 -13 46 -14 46 1v84zM173 188h66c5 0 7 -10 1 -10h-144c-7 0 -7 10 0 10h67c-4 17 -8 16 -3 24c10 0 11 -18 13 -24zM118 172
c16 -1 14 -24 22 -41c3 -7 -9 -12 -10 -4c-3 13 -8 26 -13 39c-2 3 -2 5 1 6zM197 117c16 -3 44 6 50 -6c-1 -3 -2 -5 -5 -5h-150c-8 -1 -7 11 0 11h94c6 13 11 29 16 48c0 8 13 3 10 -3c-5 -18 -10 -33 -15 -45zM125 89h85c35 -4 13 -63 19 -95c-1 -12 -8 -18 -22 -18h-80
c-41 0 -16 62 -23 96c0 11 7 17 21 17zM127 79c-20 1 -9 -26 -12 -42h104c-2 14 6 42 -8 42h-84zM115 26c3 -16 -9 -40 12 -40h81c19 -1 8 25 11 40h-104z" /><glyph glyph-name="uni66F4" unicode="&#x66F4;" d="M100 -7c-27 -16 -39 -20 -81 -20c-6 0 -9 10 -2 10c32 -1 56 5 72 16c-19 15 -38 30 -38 49c2 1 4 1 7 -1c15 -21 28 -35 41 -42c14 11 22 27 24 50h-81c-10 -1 -14 4 -14 15v78c0 10 5 16 16 16h79v27h-102c-8 -1 -9 11 -1 11h218c5 -5 4 -8 -1 -11h-104v-27h82
c8 -1 14 -6 14 -17v-79c0 -9 -5 -13 -16 -13h-80c0 -23 -8 -41 -24 -55c21 -11 64 -17 131 -16c15 -9 -8 -13 -19 -10c-53 -1 -93 6 -121 19zM46 153c-13 -2 -6 -24 -8 -37h85v37h-77zM210 153h-77v-37h85c-2 13 6 37 -8 37zM46 66h77v40h-85c2 -14 -6 -40 8 -40zM211 66
c12 3 5 27 7 40h-85v-40h78z" /><glyph glyph-name="uni6700" unicode="&#x6700;" d="M55 139c-26 -5 -15 29 -17 51c-2 11 4 15 17 15h149c22 3 13 -29 15 -48c1 -14 -5 -18 -18 -18h-146zM48 177h161c-1 7 3 19 -6 18h-151c-8 0 -3 -11 -4 -18zM205 149c6 -1 3 12 4 18h-161c1 -6 -3 -20 4 -18h153zM15 125h227c8 0 8 -10 0 -10h-123v-106
c19 8 24 -10 0 -9c1 -11 0 -41 -10 -24v24l-95 -14c-9 -3 -9 8 -2 9l24 3v117c-10 -2 -39 0 -21 10zM46 87h63v28h-63v-28zM147 99h67c13 -1 18 -7 15 -18c-7 -24 -18 -46 -34 -65c11 -12 27 -23 48 -34c6 -2 2 -13 -4 -10c-14 7 -31 20 -52 36c-19 -12 -35 -32 -58 -32
c-2 3 -1 6 2 7c21 11 38 22 49 32c-13 17 -25 37 -35 58c-5 8 5 9 9 4c9 -21 20 -39 34 -54c13 17 27 37 31 64c-20 4 -49 1 -72 2c-8 0 -8 10 0 10zM46 48h63v29h-63v-29zM46 0l63 8v31h-63v-39z" /><glyph glyph-name="uni6709" unicode="&#x6709;" d="M117 184h127c7 0 7 -10 0 -10h-132c-9 -12 -20 -23 -31 -33h132c13 1 19 -6 19 -19v-129c3 -36 -37 -22 -63 -17c-9 1 -5 14 3 11c38 -12 55 -9 49 8v31h-155c-3 -18 6 -48 -6 -56c-3 1 -5 3 -5 6v144c-9 -8 -22 -16 -39 -24c-9 -5 -13 5 -5 9c37 17 66 41 88 69h-79
c-8 0 -8 10 0 10h85c8 9 6 26 19 27c10 -7 -6 -18 -7 -27zM221 88c-3 14 7 40 -7 43h-141c-14 -2 -4 -29 -7 -43h155zM66 78v-42h155v42h-155z" /><glyph glyph-name="uni6717" unicode="&#x6717;" d="M145 185c1 32 50 14 78 19c12 -1 19 -8 19 -19v-185c-1 -36 -33 -34 -68 -23c-7 2 -3 15 4 10c31 -8 53 -15 53 11v55h-77c-4 -35 -12 -62 -24 -81c-5 -5 -13 0 -9 6c32 48 23 130 24 207zM165 194c-19 -5 -6 -41 -10 -61h76c-3 20 8 55 -9 61h-57zM41 178
c-18 0 -7 -26 -10 -41h80c-1 16 5 41 -10 41h-60zM31 127v-40h68c17 0 11 24 12 40h-80zM155 123v-60h76v60h-76zM66 188c-1 6 -11 16 -6 23c12 3 16 -22 17 -23c20 0 42 3 44 -15c-5 -33 15 -96 -18 -96h-72v-89c-1 -2 1 -3 4 -2c19 9 39 19 58 31c-12 16 -20 33 -28 41
c-6 6 5 13 9 7c13 -18 28 -41 43 -68c5 -5 -8 -12 -9 -6c-3 6 -7 11 -10 16c-26 -16 -47 -27 -63 -32c-10 -3 -14 0 -14 9v189c-3 21 27 14 45 15z" /><glyph glyph-name="uni671B" unicode="&#x671B;" d="M135 185c0 29 57 17 85 17c9 0 14 -6 14 -18c0 -58 19 -119 -64 -88c-10 4 -4 12 4 10c44 -15 54 -10 50 22h-80c-4 -17 -10 -38 -28 -40c13 26 19 46 19 97zM231 65h-101v-31h96c6 0 6 -10 0 -10h-96v-36h109c7 1 8 -10 1 -10h-225c-7 0 -7 10 0 10h105v36h-88
c-8 0 -8 10 0 10h88v31h-99c-9 -1 -9 9 -1 10h212c7 0 6 -11 -1 -10zM66 188c-4 5 -8 33 5 18c2 -6 4 -12 5 -18c16 -2 41 5 49 -5c-1 -3 -3 -5 -6 -5h-86v-64c-1 -9 2 -11 10 -9c28 6 52 10 69 15c7 3 10 -7 3 -9c-24 -5 -49 -10 -73 -15c-16 -3 -19 1 -19 19v63
c-11 -3 -21 10 -7 10h50zM224 160h-79v-22h79v22zM224 170c8 39 -40 18 -66 22c-16 3 -13 -9 -13 -22h79z" /><glyph glyph-name="uni671F" unicode="&#x671F;" d="M154 181c0 30 40 20 65 20c13 0 20 -6 20 -16v-192c1 -27 -31 -19 -49 -15c-8 1 -6 13 3 9c58 -20 29 28 36 64h-64c-1 -29 -7 -54 -18 -75c-4 -5 -14 -4 -9 4c26 47 16 131 16 201zM176 191c-21 -2 -7 -40 -11 -60h64c-4 21 10 60 -12 60h-41zM165 121v-60h64v60h-64z
M112 202c12 13 11 -13 10 -23c10 2 31 -2 17 -10h-17v-120c10 1 31 1 18 -10h-122c-17 10 13 12 22 10v120c-10 -1 -39 -2 -23 10h23c0 10 -3 37 10 24v-24h62v23zM50 169v-33h62v33h-62zM50 126v-33h62v33h-62zM50 82v-33h62v33h-62zM52 28c2 6 13 1 10 -5
c-11 -23 -25 -40 -41 -51c-7 -4 -12 4 -6 8c16 12 28 28 37 48zM105 28c11 -18 30 -30 23 -45c-3 -1 -5 0 -6 3c-9 13 -17 25 -25 36c-6 5 4 12 8 6z" /><glyph glyph-name="uni672A" unicode="&#x672A;" d="M128 214c12 -4 3 -28 6 -41h100c6 0 7 -12 0 -11h-100v-56h107c8 0 8 -10 0 -10h-105c28 -42 66 -75 114 -100c8 -3 2 -13 -5 -9c-48 26 -86 58 -111 98v-112c0 -7 -12 -8 -11 0v110c-23 -39 -58 -71 -107 -95c-9 -5 -13 6 -5 10c52 24 88 57 110 98h-106
c-7 0 -7 10 0 10h108v56h-96c-8 -1 -7 11 0 11h96c2 13 -5 36 5 41z" /><glyph glyph-name="uni672C" unicode="&#x672C;" d="M120 212c15 12 9 -20 10 -30h107c6 0 7 -12 0 -11h-103c27 -55 63 -104 109 -147c6 -6 -1 -16 -8 -9c-43 43 -78 91 -105 145v-128h67c6 0 7 -12 0 -11h-67c-2 -17 5 -46 -5 -55c-11 9 -2 38 -5 55h-63c-7 -1 -6 11 0 11h63v126c-19 -52 -53 -100 -102 -144
c-6 -6 -13 2 -7 7c47 41 82 91 105 150h-101c-8 -1 -7 11 0 11h105v30z" /><glyph glyph-name="uni6751" unicode="&#x6751;" d="M213 212c10 -7 3 -31 5 -46c11 -2 30 5 32 -6c-3 -10 -21 -3 -32 -5v-155c-6 -38 -45 -26 -83 -15c-8 2 -6 14 3 11c46 -16 70 -14 70 5v154h-90c-8 -1 -7 11 0 11h90c3 15 -6 39 5 46zM60 210c10 -6 3 -31 5 -45c13 -2 36 5 41 -5c-5 -10 -28 -3 -41 -5v-11
c21 -27 36 -51 47 -71c5 -8 -5 -14 -9 -6c-10 22 -23 43 -38 62v-152c0 -6 -10 -6 -10 0v148c-9 -27 -21 -52 -37 -73c-4 -8 -16 -3 -9 6c22 27 37 60 44 97c-11 2 -49 -6 -37 10h39c2 14 -5 39 5 45zM136 128c16 -28 29 -59 39 -92c4 -11 -8 -16 -11 -4
c-8 32 -21 61 -38 90c-4 5 6 12 10 6z" /><glyph glyph-name="uni6765" unicode="&#x6765;" d="M124 211c11 15 13 -11 11 -22h96c6 0 6 -10 0 -10h-96v-85h104c7 0 7 -10 0 -10h-99c26 -33 61 -64 104 -93c8 -5 1 -14 -7 -9c-35 23 -69 54 -102 93v-101c0 -8 -12 -9 -11 0v100c-25 -35 -61 -66 -107 -94c-9 -5 -14 5 -6 9c47 25 82 58 108 95h-100c-7 0 -7 10 0 10
h105v85h-92c-8 0 -8 10 0 10h92v22zM48 163c9 -13 19 -29 30 -49c4 -9 -5 -15 -9 -7c-9 19 -19 36 -30 50c-6 8 5 12 9 6zM218 157c-7 -17 -17 -35 -29 -52c-5 -8 -15 -3 -9 6c13 19 22 36 28 51c2 8 13 1 10 -5z" /><glyph glyph-name="uni6797" unicode="&#x6797;" d="M59 209c15 13 9 -23 10 -35c12 -1 49 4 34 -10h-32c18 -27 34 -52 45 -75c5 -9 -7 -13 -10 -5c-8 19 -20 42 -37 69v-173c0 -7 -10 -7 -10 0v160c-11 -49 -25 -87 -42 -114c-3 -4 -6 -5 -9 -4c-3 2 -3 5 0 9c23 37 39 82 48 133h-42c-7 0 -7 10 0 10h45v35zM174 207
c15 13 9 -22 10 -34c19 -3 48 6 59 -5c-1 -3 -2 -5 -5 -5h-52c15 -48 36 -96 63 -143c5 -8 -5 -16 -9 -7c-28 57 -48 100 -56 131v-166c0 -7 -10 -7 -10 0v164c-12 -43 -34 -86 -65 -129c-6 -8 -16 -3 -10 6c36 47 60 95 72 144h-44c-7 0 -7 10 0 10h47v34z" /><glyph glyph-name="uni67F3" unicode="&#x67F3;" d="M142 34c-8 -4 -26 -9 -40 -13c-8 -4 -11 -1 -11 10v150c-1 11 4 16 13 16c17 0 34 5 48 13c6 3 11 -6 5 -9c-13 -6 -29 -11 -50 -14c-5 0 -6 -2 -6 -7v-145c4 -9 40 11 43 11c1 39 1 88 1 130c1 5 5 5 10 1c-3 -55 8 -144 -15 -174c-9 -12 -29 -22 -60 -30
c-9 -3 -11 9 -3 10c41 8 63 25 65 51zM239 183v-156c-3 -18 -16 -23 -39 -15c-7 2 -4 12 2 10c17 -7 27 -4 27 7v154c-3 12 -25 3 -37 6c-3 0 -5 -2 -5 -6v-206c0 -6 -10 -6 -10 0v207c-3 24 28 15 47 15c10 0 15 -5 15 -16zM50 208c13 -7 3 -37 6 -54c11 2 39 -1 22 -10
h-22c9 -19 19 -41 28 -66c3 -9 -9 -13 -11 -3c-4 15 -10 31 -17 48v-143c0 -11 -12 -13 -11 0v133c-8 -29 -16 -51 -24 -66c-3 -9 -15 -5 -10 4c16 33 27 64 33 93c-11 2 -32 -5 -36 5c4 9 25 3 37 5v49c0 3 2 4 5 5z" /><glyph glyph-name="uni6B63" unicode="&#x6B63;" d="M22 195h209c7 0 7 -10 0 -10h-92v-86h91c7 0 7 -10 0 -10h-91v-99h102c7 1 8 -10 1 -10h-229c-8 1 -8 11 1 10h30v148c0 8 10 5 10 -1v-147h75v195h-107c-7 0 -7 10 0 10z" /><glyph glyph-name="uni6BB5" unicode="&#x6BB5;" d="M6 17c-2 8 17 6 17 9v157c1 11 6 17 16 17c15 0 38 2 67 10c5 2 9 -9 3 -11c-17 -5 -40 -7 -69 -10c-13 -1 -3 -26 -6 -41h66c8 0 8 -10 0 -10h-66v-47h63c8 0 8 -12 0 -11h-63v-52c7 0 50 7 72 12c6 1 9 -9 2 -10c-12 -2 -66 -13 -74 -14c-3 -15 6 -41 -6 -47
c-10 7 -3 31 -5 45c-6 -1 -15 -5 -17 3zM132 192c0 23 43 9 66 13c26 -4 11 -49 15 -75c-6 -22 27 -2 33 -17c-1 -10 -19 -4 -28 -5c-35 -3 -1 68 -23 87c-17 -3 -49 7 -52 -9c2 -44 -1 -66 -33 -86c-10 -6 -13 5 -6 9c31 14 28 42 28 83zM123 97h93c13 -1 18 -10 11 -24
c-11 -24 -27 -43 -48 -60c15 -10 36 -21 64 -31c8 -3 6 -14 -3 -11c-25 9 -49 21 -71 34c-28 -15 -51 -26 -70 -34c-17 -1 -4 15 7 16c25 9 43 17 54 26c-21 21 -34 41 -40 59c-4 6 8 9 10 4c9 -23 23 -42 40 -56c23 21 42 37 47 63c-26 7 -64 1 -95 3c-9 0 -6 11 1 11z" /><glyph glyph-name="uni6C14" unicode="&#x6C14;" d="M58 206c9 13 14 -6 7 -14h165c5 0 5 -10 0 -10h-170c-13 -20 -26 -34 -41 -43c-8 -6 -13 5 -5 8c21 16 36 36 44 59zM209 139h-148c-7 0 -7 10 0 10h148c6 0 6 -10 0 -10zM189 100h-157c-9 0 -7 10 1 10h161c11 -1 17 -7 17 -19c0 -56 6 -91 18 -105c4 3 8 17 8 41
c0 9 13 8 11 -1c-3 -26 -6 -42 -9 -48c-4 -8 -8 -11 -15 -7c-14 17 -22 56 -24 117c0 8 -4 12 -11 12z" /><glyph glyph-name="uni6C34" unicode="&#x6C34;" d="M121 207c13 14 12 -14 11 -25c24 -75 62 -138 113 -189c7 -4 0 -16 -7 -11c-49 51 -85 108 -106 170v-164c-5 -19 -27 -22 -65 -7c-5 1 -2 14 4 10c28 -11 45 -12 50 -1v217zM235 177c-14 -29 -33 -54 -57 -73c-7 -6 -14 3 -8 8c23 20 41 43 55 70c3 7 14 2 10 -5z
M18 160c29 -7 87 18 79 -22c-11 -55 -36 -104 -77 -149c-6 -6 -16 6 -8 10c37 37 62 84 75 143c1 6 -2 8 -9 8h-60c-7 0 -7 10 0 10z" /><glyph glyph-name="uni6C38" unicode="&#x6C38;" d="M46 213c56 -5 107 -15 152 -30c7 -2 2 -14 -4 -10c-47 15 -96 29 -149 29c-12 0 -9 12 1 11zM237 152c-16 -21 -37 -42 -64 -61c-8 -7 -14 5 -7 9c23 15 43 34 62 59c3 6 14 -1 9 -7zM136 122v-130c-2 -22 -27 -26 -74 -12c-4 5 -3 9 3 10c42 -13 60 -9 60 10v144
c0 7 -3 11 -9 11h-100c-7 -1 -6 11 0 11h102c11 0 16 -5 19 -16c15 -63 54 -115 113 -154c6 -2 -2 -14 -6 -9c-54 35 -90 80 -108 135zM93 105c-21 4 -51 1 -76 2c-8 0 -5 10 1 10h73c11 -1 17 -7 13 -17c-18 -50 -49 -89 -90 -113c-6 -4 -14 7 -5 10c37 22 65 56 84 101
c1 3 1 6 0 7z" /><glyph glyph-name="uni6C5F" unicode="&#x6C5F;" d="M82 199h149c5 0 5 -10 0 -10h-68v-197h78c6 1 6 -10 1 -10h-168c-8 1 -8 11 1 10h78v197h-71c-7 0 -7 10 0 10zM31 200c21 -10 38 -23 53 -38c5 -5 -3 -14 -7 -8c-16 15 -33 29 -51 38c-7 4 -1 10 5 8zM79 67c3 6 11 -1 9 -5c-16 -33 -39 -61 -68 -84c-7 -5 -14 3 -7 7
c29 23 51 50 66 82zM17 125c15 -4 34 -13 57 -27c6 -3 2 -13 -5 -9c-19 13 -38 21 -55 26c-7 2 -5 11 3 10z" /><glyph glyph-name="uni6C99" unicode="&#x6C99;" d="M155 208v-194c0 -10 -10 -10 -10 0v193c-1 6 10 6 10 1zM113 190c-3 -58 -15 -101 -36 -130c-4 -7 -14 -1 -9 6c20 27 32 69 35 125c-1 6 11 4 10 -1zM226 89c-23 -104 -44 -105 -165 -115c-9 0 -12 11 -1 11c125 5 143 15 158 127c-11 29 -20 54 -29 75c-3 5 6 10 9 4
c19 -43 35 -89 50 -136c2 -6 -8 -11 -9 -3c-1 4 -12 28 -13 37zM50 60c1 7 13 4 10 -3c-9 -30 -23 -55 -40 -75c-4 -6 -15 0 -8 6c17 21 29 45 38 72zM10 123c19 3 32 -17 53 -29c5 -6 1 -14 -6 -8c-8 7 -23 17 -44 31c-3 1 -4 3 -3 6zM15 199c20 3 33 -17 54 -29
c5 -6 -1 -14 -7 -8c-4 4 -26 18 -44 31c-3 1 -4 3 -3 6z" /><glyph glyph-name="uni6CA1" unicode="&#x6CA1;" d="M93 95h118c13 -2 18 -8 15 -17c-10 -25 -30 -49 -60 -72c21 -9 46 -17 77 -22c7 1 6 -13 -1 -11c-27 3 -55 12 -84 27c-26 -14 -61 -23 -104 -28c-9 -1 -12 11 -1 11c35 0 67 10 94 23c-25 19 -43 39 -54 62c-5 5 5 10 9 6c15 -26 33 -46 54 -61c22 15 41 35 57 61
c3 5 2 10 -5 10h-115c-10 -1 -9 11 0 11zM18 141c14 -9 28 -20 41 -34c5 -10 -9 -10 -13 -2c-13 12 -24 21 -33 27c-5 4 -2 11 5 9zM31 202c15 -12 29 -24 40 -36c5 -4 -2 -14 -6 -7c-15 14 -28 26 -40 35c-6 3 2 12 6 8zM54 78c-1 8 12 8 10 -1c-8 -42 -21 -75 -40 -100
c-5 -7 -16 -2 -9 6c21 23 33 55 39 95zM109 183c-1 36 50 14 78 20c24 -2 11 -47 14 -70c-3 -22 17 -19 37 -19c8 0 8 -10 0 -10c-33 -1 -47 -6 -47 36v46c0 4 -3 6 -8 6h-57c-12 0 -5 -20 -7 -31c1 -29 -11 -49 -35 -60c-10 -5 -15 7 -5 11c30 9 31 34 30 71z" /><glyph glyph-name="uni6CE2" unicode="&#x6CE2;" d="M156 207c11 15 11 -12 10 -23c45 -1 106 12 61 -53c-3 -7 -14 -1 -8 6c38 55 -18 32 -53 37v-59c24 -1 68 8 59 -20c-9 -27 -27 -52 -54 -75c25 -15 50 -29 75 -36c11 -3 5 -16 -4 -13c-29 11 -56 25 -81 42c-27 -17 -51 -31 -73 -40c-13 0 -7 14 4 15c27 11 47 22 59 32
c-26 23 -41 54 -55 84c-3 -55 -15 -99 -40 -129c-6 -7 -15 2 -7 8c34 41 40 106 37 183c0 29 45 15 70 18v23zM96 166v-51h60v59h-52c-5 -1 -8 -3 -8 -8zM207 104h-98c11 -30 29 -55 52 -76c25 20 42 42 52 67c2 5 0 9 -6 9zM35 203c15 -10 29 -19 39 -30c7 -8 -5 -14 -9 -7
c-12 11 -24 21 -36 29c-6 4 3 10 6 8zM17 126c17 8 33 -16 45 -22c8 -8 -3 -15 -9 -8c-5 7 -19 15 -33 24c-3 2 -4 4 -3 6zM69 64c-11 -31 -25 -59 -45 -83c-5 -7 -15 4 -7 9c17 21 31 47 42 78c1 7 13 2 10 -4z" /><glyph glyph-name="uni6CE8" unicode="&#x6CE8;" d="M170 172h69c6 0 6 -10 0 -10h-74v-74h67c6 0 6 -10 0 -10h-67v-90h83c6 0 6 -10 0 -10h-184c-8 0 -8 10 0 10h91v90h-64c-8 0 -8 10 0 10h64v74h-69c-8 0 -8 10 0 10h73c-1 11 -17 26 -11 38c15 -2 13 -19 22 -38zM35 202c12 -9 24 -20 37 -34c5 -6 -4 -14 -7 -7
c-10 11 -22 22 -36 34c-4 3 -5 5 -3 7c2 3 5 3 9 0zM23 139c15 -11 29 -23 41 -36c5 -5 -3 -14 -8 -8c-8 10 -21 22 -38 35c-8 3 -4 14 5 9zM70 74c-9 -41 -24 -73 -45 -96c-6 -6 -16 -1 -9 7c19 19 34 50 44 91c0 8 12 6 10 -2z" /></font>
</defs>
</svg>
